<svg xmlns="http://www.w3.org/2000/svg" viewBox="0 0 469.43 364.19"><defs><style>.cls-1{fill:#3e3d3d;}</style></defs><g id="Layer_2" data-name="Layer 2"><g id="_ëîé_1" data-name="‘ëîé_1"><path class="cls-1" d="M139.92,363.37c.58-1.05-1.61-2.6.19-4.13,3.31-2.67-7.16-.23-.71-4.71,2.9-2,.45-1.75,1.65-2.95,1.67-1.54-1.37-2.15,1.86-3.11,1.75-.51,1.84-.62,1-2.51-1-2.12-1.13-2.18-2.38-.55s-2.32-.31-1.78-1c.83-1.3-.9-1.37-2.69-.13-1.19.82-2,1-2.14.61-.42-.94,1.6-1,1.44-2.64-.1-2.14,1.15-2.76-.18-2.75s-5.23-2.11-6.33-1.61-.58-.82-2.62-.45c-.79.14-1.33-.11-1.31-.55.16-1.2-2.63-3.14-4.62-3.16-3.13-.22-3.65-4.52-7.62-2.73-2.32,1.05-2.49-.48-3.94.72s-1.16-.67-2.25,0c-5.87,3.59-3.81-2.51-.86-1.74,1.92.38,1.78-2.89-3.4-1.09-3.76,1.37-3.49,1.62-5-2.19-1.46-3.63-.5-3.05-3.7-2.23-2.34.63-4,0-2.23-.84a1.63,1.63,0,0,0,.78-1.41c-.09-1.41,1.61-2.09,2.12-1s1.12,0,2.52,1.49.89,1.56,1.41-.64c1.27-4.7,4.56-.78,2.25.26-3.26,1.47,2.27,3.39,6.33-.45,2.2-2.09,1.18-.75,5.93-2.89,2.12-1,3.43-1.2,3.62-.79.4.89,7-2.24,9-4.19,1.53-1.52,5.32-2.92,4-.76-.66,1.21-.63,1.27.26.87,1.64-.74.33-3.69,1.56-3,1,.73,1.93.19,1.45-.87s.35-1.58,1.23-1.05c.62.43-.62,3.33-1.25,3-.17-.06-.4-.12-.68,4,1-.55,4.89-3,5.29-2.11.51,1.12,5.12-1.39,5.56-2.93.24-1,.57-1.26,1-.86.88.81,1.87-1.2,2.32-.2.38.84,1.65.5.94-1.07s1.18-2.09,1.5-1.38c.43.94-1.11.68-.54,1.94.68,1.51,18.11-5.8,20-5.55.38,0,2.16-1,4-2.51,2.87-2.29,4-2.79,8.58-4.09,7.94-2.15,6-3.55,9.3-4.55,2.61-.81,5.27-3.54,6.4-3.25,1.52.52,3.54-.18,4-1.32,2.42-6.74,10.45-3,11.23-4.51,1.3-1.6,7.4-2.88,7.76-5.28.23-1.38,1.69-1.9,3.11-1.12,1.25.72.91-2.49,2.14-2,1.42.49,6.17-1.73,9.07-4.25,6-5.5,23.61-11,19.23-12.09-2.17-.45-2.1-.06-.47-1.35,2.3-1.82,2,.75,5.12-2.17,1.32-1.17,2-1.54,2.39-1.15.7.75,6.15-2.57,6.88-4.25,1-2,2.89-1.13,2.48-2s2.54-.67,2.17-1.48c-.52-1.16-2,.46-1.17-2.45.37-1.37.64-1.71,1-1.15.75,1.51,5.79,2.92,6.81,1.89.9-.83.87-.89-.23-.82A1.56,1.56,0,0,1,277,242.9c-.93-2.86,7.79-5.33,7.82-3.89,0,1,4.14-.34,2.5-1.06-1.28-.63.18-2.57,2.17-2.9.78-.14,1.32-.52,1.16-.88-.55-1.22,5.1-1.27,4.29-3.07-.63-1.39-1.46-.08-1.87-1s2.06.28,1.67-2.1c-.26-1.52,0-1.77,1.57-1.56a1.36,1.36,0,0,1,1.11,1.2c.09,2.17,9.11.84,6.26-5.46-.67-1.47-.58-1.58,2.77-2.81,1.88-.71,3.69-1.1,4-.74.84.9,1.74.07.9-.84-4-4.51,7.17-2.51,2.33-1.76-1.11.22-1.18.54-.51,2,1.06,2.36,2.6,2.16,3.93-.57a6.1,6.1,0,0,1,3.16-3.2c2.88-1.31,1-1.89,3.06-2.81s.45-.69,2.47-3.17c1.39-1.48,1.4-1.62.05-1.94-3.35-.64,3.3-1.25,0-2-1.52-.38-1.17-1,.72-1.39s5.68-2.24,6.81-1.59c1.18.86,1.72-1.52,3.49-.58,1.35.71,3.95-1.35,2.43-1.53s.27-.92,1-.39c1,.68,1.8,0,1-.8-.59-.52-.47-.71.35-.8,1.77-.18-.72-1,3-2.37,2.06-.79,2.54-1.14,2.31-2.11s-.51-1-1.74.08c-5.23,4.18-5.64.27-5.41-.53.33-1.15,3.93-2.28,5.56-1.81,1,.31,6.37,0,5.49-2-.53-1.18,1.46-3.21,2.78-2.82.89.46,9.17-6.82,10.52-7,2.33-.18,4.63-7.52,6.49-6.2.68.4.91.3,1-.39.23-1.43,2.22-1.29,7.22-7.1,2.33-2.75,2.46-2.46,0-1.36s-3.9-.15-2.27-1.74c2.92-2.9,4.48.8,4.74-1.43.15-.92.81-1.5,3.77-3.12,1.4-.63,1.31-2.9,3.37-4,1.57-.92,2.34-2.19,1-1.58a4.74,4.74,0,0,1-2.35,0c-2.95-.68,3.4-1,2.87-2.14s.83-4.28,1.85-4.38a1,1,0,0,0,.91-1.13c.06-1.64,1.93-.42,2.1-2.58.2-3.48,3.65-1.65,1.35-.61-2.92,1.32,5,.76,6.24-2.53.51-1.37.51-1.37-.56-.46-.61.56-1.22.76-1.35.47-1.14-2.51,5-1.15,4.51-3.67-.26-2,1.32-1.19,1.23-3.25-.26-1.63,1.78-4.23,1.33-.67-.19,1.15,0,1.56.76,1.85,2.57,1-1.57-4.25,4.27-7,1.39-.7,2-1.11,1.31-1-1.39.21-1.5,0-.85-1.74.45-1.2.57-1.25,1.7-.63s1.25.57,2.72-1.37c1.74-2.42,1.39-3.82-.91-3.42-2.89.56,3.1-2.94,5.78-3.68,1.87-.42,2.17-.69,1.77-1.58-.48-1.06,1.27-3.62,3-4.39,1.54-.7,7.37-6.31,8-7.68.32-.71.92-1.26,1.35-1.25,1,.27.61-2.68,1.87-3.25,1.61-.73-1.09-1.16.68-2.72a8.27,8.27,0,0,0,1.76-1.93c.55-.82.41-1-.94-1.28-2.27-.47-1.45-2.11,2-3.8,4.37-2.26,6.26-4.53,3.71-4.37-.58,0-.58-.17.07-.46,1.31-.69,3.2-6.4.54-4.15-1,1-1.94,0-1.72-1.77s1.52-2.6,2.05-1.43c.24.53.36.48.44-.27.28-1.41,2.19-.6,2.89-2.08,2.21-4.69,2.63-5.17,4.8-5.86a.86.86,0,0,0,.37-1.23c-.35-.77-.2-.91.78-.64s1.39-.06,2.21-1.71c1.71-3.36-.63-3.73,1.56-4.39,1.37-.41,2-1.46,3-5.35.54-1.8.51-1.86-.9-2.15-3.14-.7,3.4-1.37,2.64-5.16-.51-2.77-2-2.41-.26-3.72,1.25-1,.95-3.69-.34-3.11a.6.6,0,0,1-.83-.26c-.28-.62,4.41-3.39,5.3-4-2.32-5.15-2.64-5.12-.66-6,2.43-1.09,1.81-5.68,1.17-6.2-1-.72,1.71-1.71.19-4-1.42-1.91-1.84-.44-2.42-1.74s1.94-1.54,2-2.67-1.24.13-1.12-.91c0-.44-.55-.75-1.36-.67-1.45.09-1.45.09-.24-1.31s1.24-1.48-.26-2.15a9.27,9.27,0,0,0-3.81-.41c-4.78.45.33-3.24-4.47-1.74-3.7,1.19-1.65,2.06-4.59,4.77-3.16,2.71,1,7.48,2.95,5.91,2.72-2.2-.95,2.24,1.17,2.59,2.52.36-3.33.75.27,3.57,1.66,1.31,1.37,2.71-.69,3.65-1.89.85-3.59,4.46-2.85,6.11.43.94-2.12,1.57-1.77,2.36s-2.36,7.32-2.08,8-2.79,5.17-2.8,7.3c.09,2.89-7.05,8.87-2.53,10.58,1.63.61-4.37,1.46-3.67,3s-2.9,1.4-2.48,3.46S436,69.85,437,70.62c.95.59-3.51,3.57-4.32,5.36-.71,1.57-2,1.6-1.68,2.4.16.35-.26.82-.85,1.09-1.49.67-2.23,4.55-3.33,5-.88.4-.62,1.13.66,1.62s-.85,3-1.21,2.18c-.72-1.59-7,3.31-6.66,5.21s-1.18,1.39-.15,2.34c.81.84-.14,3-1.27,2.84a.78.78,0,0,1-.72-.81c.22-1.24-1.09-.22-1.7,1.41-1.75,4.64-5.94,5.94-8.36,8.81-7.95,8.8-9.68,8.11-8.9,9.84.94,2.08-.64,1.07-5,4.73a9,9,0,0,1-2.4,1.44c-1.26.35-1,1.49.32,1.48.49,0,.08.18-.91.35-1.55.34-1.73.56-1.13,1.43,1.13,1.76-2.61,2.37-2.13,3.44.34.76-1.64,1.09-1.26,1.92s-2.68.14-3.08,1.82-13,8.07-12,10.38c.37.83.19.91-.78.64-2.78-.74-3,6.32-4.72,6-2.65-.36-7,3.32-6.19,5.14.39.87-4,5.26-4.53,4.11s-.35,1.08-2.25,1.94c-1.06.48-1,.53.17.84,2.21.49.18,5-2.5,5.46-2.94.41-1.68,4.58-3.54,3.16-1.21-.94-7.17,1.4-7.37,2.84-.32,2.36-16.55,7.42-14.58,10.77a1.86,1.86,0,0,1-2.47,2.53c-1.08-.67-5.43.59-4.66,2.89.58,2,.48.06,2.7.63,2.87.69-.31,1.82.49,3.6.39.86-2,1.91-2.33,1.13-.47-1-2.29,1.19-3.15-.71s.87-1.2.25-2.59c-.49-1.06-2.42-.43-3,1.33-.37,1.38-2.09,2.44-1.9,1.14.16-1.86-10.17,6-7.16,4.73.3-.14.31.21,0,.72-.47.71-.39.88.14.64,1-.46.87,1.25-.3,1.06-1.5-.17-2.92.61-2.28,1.24,1.05,1.05-2.36.57-1.8,1.81s-1.14,0-2.55.66a10.63,10.63,0,0,1-2.42.6c-1.57.14-1.67,1.32-.14,1.26,1.15-.07-.67,1.22-2.53.51-.95-.35-1.44-.2-1.7.49s-.07.95.71,1.09c1.93.15-.23,1.8,1.36,2.86,1.86,1.29-1.58,4.83-4.7,4.83-4.07,0,.16-1.9-1.25-2.92-.51-.34-.24-.53.81-.72,2.48-.48,2.46-4,2.34-4.25-.29-.65-2.45.4-2.6,1.32,0,.43.21.61.62.43,1-.44.92.58-1.53.69-2.83.24-.56.7-7.07,3.83-6,2.9-5.61,4-5,3.74,1.56-.7,1,3.21,3.75-.34,1.26-1.74,2.66-.94,5.17-1.28,2.21-.22.18,1.9,1.92,4.1.83,1,.68,1.19-1.52,2-3.32,1.15-3.12-.35-2.22-.2.37,0,1.06-.48,1.49-1.1,1.94-2.95-6-2.89-9.81,1.38-3.06,3.65-.6-1.22-12.83,6.29-3.08,1.8-4.36.41-4.71,1.35s2.19,2.49,2.67,1.84c.68-1,.91.44.22,1.75-1.06,2.24-.68-.54-3.32.65-1.47.52-1.47.52-.45-.22a1.6,1.6,0,0,0,.71-2c-.69-1.53-3.08-.38-3.39,1.61a2.83,2.83,0,0,1-1.35,2c-.65.29-1.07.77-1,1,.53,1.17-5.33,5.46-5.49,2.91-.06-1.39-1.1-.71-1.4,1-1.19,6.2-9.3,1.17-13.37,4.34-2.41,1.61-.56,3.44-2.1,4.14-.53.24-.84.66-.7,1,.61,1.36-6.59,3.33-8.28,2.25-1-.7-2.85,3-3.56,1.4-.5-1.12-3.12,0-3.7,1.53s-3.71,3.73-4.44,3.21c-1-.65-1.31,1-1.74.08-.56-1.23-1.8,2.3-2.36,1.07-.39-.88-3,1.31-11.31,5.25-5.31,2.4-5.34,2.48-3.9,5,.43.8.35,1.4-.24,1.67-1.68.75-2.9-3.47-4.17-.11-.71,1.88-1.62,2.37-2.16,1.19s-3.13.37-2.15.41A1.18,1.18,0,0,1,179,276c.34.76-2.54,1.92-3.12,1.26-1-1.06-3.8,3.07-4.82,2.68-.32-.07-.1-.38.43-.62,1.53-.69.67-1.65-1.23-1.29-3.06.5-.25-2.5-4-.16-3.31,1.85-3.89,3-4.79,2.45s-4.17,1-3.8,1.78c.13.3-.11.55-.48.51-1-.1-.55.81.64,1.27,3.79,1.42-6,4.78-5.14,4.16,1.45-1.25-.09-1.59,1.45-2.28.92-.49.89-.55-.54-.89-2.35-.53-.61.7-2.55,1.58-.65.29-.87.74-.56,1,.9.58-1.3,1.51-2.5,1.06-2.46-.93-11,6.64-12.39,3.68-1.2-2.44-3.51-1.47-10.38.58-6.86,1.71-9,4.53-8.76,5,.37.82-8,3.5-7.33,4.66.71.83-1.44,1-1.91,0-1-2.18-9.23.64-10.29.47-.52-.05-.76.2-.6.55s-.26.83-1.17,1c-2.07.21-1.51,1.65-4.81,2.38-3.2.54-1,1.72-3.89,1.76-1.15-.05-1.89-.42-1.93-1-.06-1.47-3.17.37-2.93.89s-4.8,4.45-7.28,5.56c-2.12,1-4.51.22,1.4-3,6.18-3.11,3.24-4.63,1.61-3.49-2.12,1.61-4.72,0-4.57,1.5.11,1.09-1.73,1.2-1.3,2.14.34.77-2.45,1.18-3.47.51-.56-.32-.65-.2-.41.33.46,1-3.8,2.6-4,2.21-.37-.82,1.24-2.9,2.75-3.65a3.23,3.23,0,0,0,1.7-1.41c.35-3.46-12,3.95-12.74,2.42-.78-1.72-9.56,2.16-12.6,1-3.83-1.33,4.62-.75,4-3.8C46.23,306,50.33,307.51,51,305c.14-.63.1-1-.08-1s-.19-.41.1-1.18c.82-2.53,5.53-2.28,7.22-6.17,1.91-4.57,10.78-6.75,10.68-9-.09-1.42,2.2-1.3,1.92-2.35-.46-1.57-.93-1.6,1.14-3.14s2.27-.92-.36-2c-2-.86-2.76-2.65-1.29-3.32,1.3-.59,3.08.53,3.39,2.16.23,1.45.38,1.46,3.45-.07s4.55-3.12,4-4.24c-.37-.83-3.3,1.28-3.18,0s1.08-.19,3.56-2.32c1.14-1.08,1.79-1.38,2.68-1.14,1.63.47,2-.53.48-1.28-1-.47-1.07-.8-.44-1.93s.82-1.15,1.45-.23,2,1.06,1.59.06c-.14-.32,1.05-3.55,2.48-2.54.67.41.79.35.55-.18-.58-1.29,2.94-1.34,2.48-3.46-.42-2.35,1.79-.07,2.25-1.3.29-.77-1,.38-1.45-.55-.51-1.12.51-2.78,2-3.39,2-.77,1.06-3.18.44-2.33-.25.4-.57.47-.73.12-.61-1.36-2.45-1.73-.08-2.38,1.17-.24,1.85,0,2.25.9s.63.92.71.32c.13-1,2.69-2.21,3-1.45s1.68,0,2.1-1.16c.7-1.86-4.84-5.31-4.25-1.55.24,1.31-.84,2.37-1.32,1.3s1.77-.92-.08-1.73c-.91-.45-.93-.65-.07-1.11s.68-.52-.6-.37-1.33,0-.65-.34c1.94-1-1.48-1.25-.77-3.13,1.11-2.95-3.44.56-2.56,2.51s-3.29,2.38-2,4.58c.65,1.12.46,1.35-1.71,2.19-1.32.52-2,.9-1.57.92,1.27,0,1.85,1.58.79,2.06-.47.21-.78.63-.65.93.35.76-5,3.58-5.1,4.57-.07.46-.81.72-2,.76-1.65,0-1.92.16-2.2,1.42-.47,2.13-1.77.45-1.14.16,1.22-.55-1.15-1.61,1.56-2.83,2.87-1.3.62-1.77,4.69-3.61,1.5-.75,2.22-1.22,1.55-1.13s-1.22,0-1.3-.19c-.88-1.8-3.93-.85-3.1,1a.83.83,0,0,1-.22,1.09c-1,.46-.3-1.29-2.89-.12-3.63,1.65,1.72,3.7-3,3.33-8.37-.75-14.56,6.44-11.09,6.08,1.16-.08-.86,1.4-2,.06-1-1.19-4.79.25-5.44,2.1-1,2.64-6.7,1.16-1.92,2.5,1.12.28,2.13.17,2.38-.22.56-1.11,4.7-2.62,5.9-2.17,1.54.58.88,1.31-1.27,1.42-1.45.09-2,.33-2.09,1-.24,1.44-3.62,1.26-3.11,2.4.43.94-6.14,3.68-6.42,3-.16-.35-.59.13-.94.92-.48,1.14-1.22,1.69-2.95,2.12-3.18.73-2.31-.73-4,0s-.32,1.22-1.47,1.94c-2.64,1.77-3.42,2.94-4,1.73-.75-1.67,2.75-4.28-1.3-2.89-1.73.57-1.65,2.8.08,3,.78.15.83.27.12.59-3.23,1.46-5.34.28-3.45-.57,1.6-.72,0-3.1-2.24,1a5.78,5.78,0,0,1-1.88,2.27c-1.24.56-.81,1.5.7,1.39.84,0,1,.24.77.92-.48,1.29-2.75.68-3.18-.76s-1.18,0-2.63.62c-1.8.82-2.44,8-4.72,6-.37-.33-.23,0,.32.71,2,2.7-1.34-.74-2.2.63-.27.34-.59.42-.73.12-.31-.7-3.56,0-3.15.86.88,2-2,5-2.71,3.42-.61-1.35-.87.27-2.57,1.24-1.66.75-.16,1.77-3.31,3.19-3.3,1.5-1.19,2-3.07,2.31-1.62.22-1.63,1.95-.73,1.54.53-.24.61-.06.38.82s0,1.22,1.16,1.32c1.45.06,1.66-.25.95-1.35-.19-.27,0-.43.48-.36,1.57.26,1.15-2.51,2.59-1.17,1.91,2.06-4.56,3.1-3.7,5,.76,1.68-1.87.57-1.18,2.09s-1,.87-.22,2.66a1.2,1.2,0,0,0,2.33-.35c.19-1.15,1.15-1.37,1.63-.31.74,1.62-2.94,2.92-1.91,5.19.69,1.53.9,1.51,2.17-.06.83-1.15,1.73-.57.93.65-.55.81.88,2.09,1.88,1.63s1.57.5.7,1.25c-.33.36.22,1,1.67,1.8,4.28,2.32,7-2.62,10.42-.95,1.54.72,1.54.72-.71,1.24-1.46.38-2.12.82-1.93,1.23.32.71,1.46.4,4.21-1.05,1.83-1,3.44-.71,2.64.51s.18,2.12,1.44,1.62c2.83-1,5.56,2,11.12-3,1.4-1.19,2.92.16-.94,2.48-3.45,2.21-2.23,1.61.12,5,1.13,1.55,3.86,2.87,5,2.37.88-.4-.25,1.78,2.93.52,1.76-.8,2.14-.76,2.47.44.28.94.7,1.24,1.41.92s1-.22.81.07c-.17.57,3.85,1.45,6,1.33.61-.06,1.27.14,1.32.4.9,3.23,5.52,1.87,5.76,1.44.6-.88,1.29,2.68,2.64,2.07.47-.21,1-.22,1.09.07.24.53,4.59,1,6.4.8,2.46-.39,2.93,3,7.17,2.37s2.69,2,4.7,1.77c1.8-.1,2.31-.54,1.61-1.29s.15-2.2,1.09-1.84c1.16.64,1.13,2.91,2.75,2.8s4.49,3.37,5.21,3c1.08-.49,9.37,3.3,12.29,3.17,1.68-.22,1.12,1.1,3.24.88,2.68-.34,2.69,1.41,5.52.13,1-.45,1.73-.57,1.57-.29-.65,1.22.12,2.15,1.69,1.87,2.24-.49,1.21.93,4.35-.12,4.26-1.47,1.78,1.68,6.24,2.35,3.27.59,2.88,2.44,5.08,2.6C137.87,363.79,139.32,365,139.92,363.37Zm-41-15.44c.28-.74,2.47-.76.9-.05C99.16,348.23,98.73,348.21,98.88,347.93Zm92.31-58.25c-1.19,0-1.12-.13.42-1.11,1.72-1.06,2.39-1,1.88.22C193.23,289.47,193,289.58,191.19,289.68Zm-24,10.43c-.54-1.19.66-1.67,1.18-.53S167.71,301.31,167.17,300.11Zm48.51-22.49c-1.39-1.36-.44-2.71,2.83-4.26,2.8-1.34,3.33-1.43,3.76-.49.75,1.67-2,1.77-1.67,2.6S216.44,278.34,215.68,277.62Zm-43,19.67c-1-.65,0-2.14,4.33-1.25C176.12,296.42,173.39,297.81,172.64,297.29Zm56.16-27.23c-.11-.25,1.55-1.28,1.93-.44S228.9,270.27,228.8,270.06Zm-25.31,11.51c-.19-.42,4-5.73,3.75-3.47,0,1-2.49,1.55-2.11,2.38S203.66,281.94,203.49,281.57ZM176,292.88c-.74-1.64,1-1.3.93,0C177,294.31,176.63,294.35,176,292.88Zm-7.06,2.9c.17-.44,3-1.11,2,.25C170.31,296.85,168.58,296.64,168.9,295.78Zm-26,12.47c-1-1,.29-1.56.83-.38C144.34,309.25,143.83,309,142.89,308.25Zm80.85-36.82c-.34-.76,3.25-2.22,3.56-1.54S224.06,272.13,223.74,271.43Zm-41.89,18.78c-.4-.89,1.26-.2,1.7-2,.27-1.47,1.42-1.28,1.56.29C185.15,289.65,182.31,291.21,181.85,290.21Zm-3.63-.2c-.29-.63,2.62-1.95,2.53-1.14C180.72,289.52,178.47,290.56,178.22,290Zm-40.36,18.1c-1.85-1,2.2-2,2.59-1.17C140.77,307.64,138.59,308.63,137.86,308.11Zm70.82-33.43c-.7.13-.9-1.74-2.06-1.41,0,0-2.56.74-3.42,1.05-1.44.58-2.39-.41-1-1a1.5,1.5,0,0,0,.8-1.21c-.23-1.71,2.43.71,2.35-1.07-.24-1.34-5.86-.68-4.25-1.41,1.59-.9-.46-2.39.8-3.56,3.81-3.76.48,4.45,3.39,2,.69-.53,1-.66.65-.3-.79.93.21,2.82,1.46,2.75a1.57,1.57,0,0,1,1.44.84c.57,1.25.89,0,2.67,1.21C213.23,274,211,273.64,208.68,274.68Zm-55.82,25.16c-.31-.68,1.51-3.68-.88-1.31-1.31,1.22.62,2.19-1.4,2.55-2.34.38-1.06-1.74-3.28-.36-1.6,1.22-3.41.11-1.31-.54s2.43-3.66,5-4.84c1.06-.48,1.78-1.09,1.67-1.32-.4-.89,2-3.48,3.5-3.71s3.12.93,1.88,1.49c-1.9.86,1.16,3-1.18,3.51-2,.47-2,3.31,0,2.92C158.33,297.9,153,300.24,152.86,299.84ZM173.24,290c-.26-.58,1.15-2.45,1.22-.91C174.51,290.13,173.61,290.82,173.24,290Zm65.69-33.31a1.68,1.68,0,0,0,1.62,0c1.51-.68,3.16.7-2,3C231.61,262.83,238.12,255.76,238.93,256.68Zm-26.49,14.39c.28-.74,2.46-.76.9-.05C212.72,271.37,212.28,271.35,212.44,271.07Zm-73.31,31.36c-.31-.67,1.72-.89,2.24.26C142,304.12,139.35,302.93,139.13,302.43Zm-25.52,13.09c-1.51.27-.39-2.53,2.26-2.37,1.62.12,1.42,1.41-.36,1.87A10.84,10.84,0,0,0,113.61,315.52Zm-10.69,4c1-1.52,2.36-1.85,1.55-.35C103.4,321,102.3,320.57,102.92,319.5ZM267.24,244c-.57-1-.81-1.62-.43-1.58C268.08,242.55,269.74,248.05,267.24,244ZM123.83,309.41c-.78-1.74,2.33-2.7,2.82-1.63.6,1.34-1.86.61-1.4,1.63C125.6,310.19,124.58,311.06,123.83,309.41Zm69.22-31c.28-.74,2.47-.76.9-.05C193.33,278.71,192.9,278.69,193.05,278.41Zm-28.69,12.33a1,1,0,0,1,1.76-.8A1,1,0,0,1,164.36,290.74Zm-58,26.23c-.38-.83,5.81-3.68,4.5-2.6a6,6,0,0,0-1.39,1.62C109,317,106.67,317.74,106.32,317Zm126.89-59.12c-.39-.87.2-.88.89-.4C234.91,258.11,233.54,258.58,233.21,257.85Zm-98.07,43.61c-.42-.94-.12-1.36,1.3-2,2.35-1.07,1.95,1-.67,3.07C135.73,302.61,135.44,302.11,135.14,301.46Zm-10.91,3c-2.48.57-1.42-.67-3.72-.38-2.58.27.16-1.63,3.34-2.36,4.21-1.15,4.22-2.53,4.48-.75.19,1.05.53,1.18,1.45.7.71-.32.86-.61.37-.6-1.54.06-1.59-1.48-.06-2,.76-.34,1.4-.35,1.35,0s.43.3,1,0c.85-.32.87-.11,0,1.07-1.54,2.12.26.56.69,1.53s-2,.16-2.95,2.26C129.24,306.47,128,303.56,124.23,304.48Zm-47.31,22c-.5-1.11,2.17-3.18,1.06-2.68s-1.44-.84-.38-1.32c1.32-.6,1,1,2.3.38s1.07,1.43-.33,2.56c-2,1.71.57,3.71-1.31,2.44A4.46,4.46,0,0,1,76.92,326.5Zm88.89-39.61c-.83-.57.54-1.16.88-.4S166.44,287.41,165.81,286.89Zm-4.13,1.87c-.82-.57,1.13-1.44,1.48-.67S162.33,289.28,161.68,288.76Zm-12.5,6.08c-.11-.25,1.88-2.12,2.22-1.36S149.3,295.11,149.18,294.84Zm148.93-69.23c-.3-.66.79-1.4,1.37-.12C300,226.59,298.5,226.47,298.11,225.61Zm-12.67,6.51c-.13-.3.33-.86,1.06-1.12,1.3-.59,1.32-.53.42.45C285.75,232.79,285.77,232.83,285.44,232.12ZM91.89,319.59c-.82-.57,1.13-1.44,1.48-.67S92.54,320.12,91.89,319.59ZM62.14,333c-1.85-.3,1.45-1.5,1.77-.79S63.6,333.29,62.14,333Zm216.24-99.28c-.3-.65,3.09-2.11,3.88-1.61S278.67,234.4,278.38,233.75Zm-80.67,36.6c-.35-.77,2.18-1.93,2.06-.93C199.74,270.27,198.1,271.2,197.71,270.35ZM155,288.87c-.3-.66.79-1.4,1.37-.12C156.86,289.85,155.38,289.72,155,288.87Zm-13.41,6.42c-.53-1.16.47-.09,2.7-2.5,1.42-1.56,1.72-1.7,2.36-1.06C148.11,293.11,142.37,297.05,141.58,295.29ZM104.9,311.16c-2-.87,1.48-1,2.74-2.88s10.12-.32,1.18,2.45A9,9,0,0,1,104.9,311.16ZM82.39,322.89c-.11-.23,1.25-1.95,1.61-1.15S82.51,323.15,82.39,322.89Zm92.21-43.23c1.08-2.87,2.18.14.37,1C174.2,281,174.15,280.85,174.6,279.66Zm55-25.92c-.56-1.25,3.44-3.66,2.19-.35C231.28,254.68,230.09,254.86,229.58,253.74Zm-15,7.86c.28-.74,2.46-.76.9-.05C214.82,261.9,214.39,261.89,214.55,261.6ZM207,265c-.9.05-1-.1-.58-.8.77-1.27,1.36-1.4,1.81-.4S208.6,264.93,207,265Zm-17.17,6.76a.65.65,0,0,1,1.18-.53A.65.65,0,0,1,189.84,271.77Zm20.65-10c-.83-.57.54-1.16.88-.4S211.12,262.25,210.49,261.73ZM78.27,320.07c-.34-.77,1.59-1.67,1.48-.67C79.71,320.24,78.67,320.93,78.27,320.07Zm38.16-19.66c0-1.55,1.49-1.72,2.8-2.76.86-.52,3.46-.35,1.88,1.5C118.83,302,116.55,302.56,116.43,300.41ZM262.86,234c-.16-.35,5.43-4.06,3.47-.64C265.67,234.52,263.31,235,262.86,234ZM314,211.39c.11-1,1.29-1.52,1.17-.53C315.18,211.65,314,212.51,314,211.39ZM97,307.9c-.92-1.57-.36-2.54,1-1.64,1.32,1.07,2.35-2.5,3.55.16.59,1.3.43,1.58-1.47,2.23S97.83,309.17,97,307.9ZM48.49,329.84c-1.8-.68-1.82-.74-.89-1.66,1.14-1.08,4.89,0,4.09,1.2S50.54,330.61,48.49,329.84Zm19.85-10.39c-1.11-.75,1.23-.42,2.24-.87.56-.25,2.11,1.7-.06,1.44A4.51,4.51,0,0,1,68.34,319.45Zm218.09-99.27c-.34-.77,1.22-.91,1.92-.16S286.75,220.89,286.43,220.18Zm38-19.52c-.35-.77,3-5.33,5.27-3.1C330.83,198.77,324.53,200.86,324.44,200.66Zm-13.9,4.72c.54-1.45,3.66,1.51,1.1.71C310.92,205.91,310.47,205.55,310.54,205.38Zm-7,4c-.11-.25,1.56-1.28,1.93-.45S303.62,209.54,303.52,209.33Zm42.63-26.57c-.32-.71,1.54-2.4,2.52-2.28C351.89,180.86,346.59,183.73,346.15,182.76Zm4.82-5.52c-3.6-1.19,3.16-3.55,4.28-2.29,1,1-.87.09-1.06,1.26S352.51,177.83,351,177.24ZM25.13,324.93c-.4-.87.19-.88.88-.4C26.82,325.19,25.46,325.66,25.13,324.93Zm4.24-4.76c-.14-.29.32-.85,1.05-1.11,1.3-.59,1.32-.53.42.45C29.67,320.84,29.69,320.89,29.37,320.17Zm-8.52,3.14c1.49-2.45,2.76-.53.68.41C20.47,324.2,20.36,324.1,20.85,323.31Zm-9.52,2.18c-2.34-.79-2.42-1-.61-1.36C15.68,323.28,15.67,327,11.33,325.49ZM362.7,164.42c-.35-.76,2.37-1.5,3-.78S363,165.16,362.7,164.42ZM39,308.46c1.22-.77,2.06-1.72,1.93-2-.41-.91,3.54-3.08,1.77,2.18C41.39,312.32,33.72,311.91,39,308.46Zm7.44-2.38c-.32-.7,1-2.21,1.67-2C49.54,304.67,47.05,307.5,46.41,306.08Zm-34.7,14.27c-1.18-.89-1.07-.94,2.07-2a15.56,15.56,0,0,1,3.74-.84c.74.23-1.1,2.91-2.08,2.93C13.82,320.55,13.3,321.56,11.71,320.35ZM362,161.53c.51-.59.46-.7-.37-.82s-.89-.24-.12-.59c1.12-.51,3.22.76,1.12,1.55C361.89,162,361.64,161.92,362,161.53Zm.09-3.09c-.33-.74,2.25-2.12,1.18-.53C362.5,159.12,362.44,159.15,362.12,158.44ZM42.42,303.21c-1.08.13-1.67-.24-2.26-1.54s-.48-1.69.15-1.55c2.37.22,6-3,4.68.79C44.4,302.88,44.4,302.88,42.42,303.21ZM35.61,301c-.39-.87.2-.88.89-.4C37.31,301.29,35.94,301.76,35.61,301Zm-31,13c-.32-.7.19-1.15,2.24-1.93C13.21,309.61,5.61,316.28,4.58,314Zm375-172.37c.28-.75,2.46-.76.89-.06C379.84,141.92,379.41,141.9,379.57,141.62ZM22.23,302.82c-.34-.76,1.59-1.67,1.48-.66C23.67,303,22.62,303.69,22.23,302.82Zm-11.78,5.33c-.4-.87.19-.88.88-.4C12.14,308.41,10.78,308.88,10.45,308.15ZM75.58,278a.65.65,0,0,1,1.18-.53A.65.65,0,0,1,75.58,278Zm-15.75,7.54c-.11-.26,1.36-2,1.32-1C61.06,285.27,60.05,286,59.83,285.54ZM33.75,296.13c.32-1.69,4.31-.07,1.26.42C34.28,296.67,33.77,296.47,33.75,296.13ZM31.41,293c-1.87-1.23-2.86.25-3.27-.65s3.32-.52,3-1.22,1.76.77,2.14,1.59C33.76,293.78,32.85,294,31.41,293ZM46,286.39a.64.64,0,0,1,1.17-.53A.64.64,0,1,1,46,286.39Zm-8.76,3.39c.23-.62,3,.35,1,.39C37.63,290.26,37.17,290,37.27,289.78Zm-16.88,8.48c.28-.74,2.46-.76.89-.05C20.66,298.56,20.23,298.55,20.39,298.26ZM66.44,275c-.83-1.83,2.57-4.21,4-2.8,1,1,.94,1-.57,2.53S67.05,276.39,66.44,275Zm-23,10.7c-1.8.1-1.64-2.38.18-3.21s4.38-.06,3.21,1C44,286.08,44.62,285.66,43.39,285.74ZM39.93,287c-.4-.87.19-.88.88-.4C41.62,287.28,40.25,287.75,39.93,287Zm-16.31,6.31c-.48-1.07,1.26-2.13,1.41-.64C25,294.24,24.1,294.39,23.62,293.33ZM87.5,262.61c.11-1,1.6-.64,1.38.23S87.28,263.48,87.5,262.61ZM61.42,275.39c1-.87,3.45-1.2,1.19-.18C61.61,275.66,61.14,275.73,61.42,275.39Zm2.6-5.71c-.82-1.81,1.26-.88,2.44-4,.75-2.3.33-2.39,1.44.06C69.28,268.77,65.27,272.46,64,269.68Zm10.28-3.94c-.44-1-2.26,1.29-2.62.48s1.6-1.17,1.31-1.8c0-.09-.45-.4,4.12-1.87C76.27,264.28,75,267.36,74.3,265.74Zm-5.62-2.22c.24-.61,3,.35,1,.39C69,264,68.59,263.78,68.68,263.52ZM421.9,95.24c-.93-.76,2.91-.61,1.21.16A1.23,1.23,0,0,1,421.9,95.24ZM440.5,68.1c0-.08.93-3.33,1.09-1.34C441.67,67.71,440.79,68.75,440.5,68.1Zm16.06-13.43c1.47-1.16,1.61-1.15,1.67.24,0,.9-.16,1.06-1.36.9C455.43,55.61,455.43,55.61,456.56,54.67Zm-.63-9.08c-2.93-1.47,3.49-3.93,2.05-.5C457.66,45.94,457.07,46.06,455.93,45.59Zm3.63-18c-.39-.4-.3-1,.26-1.47,1.11-.85,2.63.16,1.73,1.14S460.26,28.31,459.56,27.56Z"/><path class="cls-1" d="M147.63,355.77c.55-1.82,2.08-1.66,1.69-2.53s-1.12.23-2.88-.55c-1.17-.39-1.27-.63-.78-1.42A4,4,0,0,1,147,350c1.65-.74-2.65-3-4.49,3.24-1,3.06-.67,4.34.69,2.95.39-.39.88-.4,1,0C144.48,356.67,147.13,357.62,147.63,355.77Z"/><path class="cls-1" d="M281.82,241.06c-1.19,0-1.68,1.35-.19.51C282.28,241.28,282.37,241,281.82,241.06Z"/><path class="cls-1" d="M306.27,224.83a.64.64,0,0,0-1.17.53A.64.64,0,1,0,306.27,224.83Z"/><path class="cls-1" d="M309.38,222.29c-.49-1.1-1.38.09-1,1C308.69,223.9,310,223.57,309.38,222.29Z"/><path class="cls-1" d="M175,275.5c-.7-.83-2.67-.06-2.65,1.2C172.5,277.8,175.83,276.27,175,275.5Z"/><path class="cls-1" d="M175.87,273.83a.65.65,0,0,0-1.18.53A.65.65,0,0,0,175.87,273.83Z"/><path class="cls-1" d="M52.53,303.46c-1.34,1-.9,2.4.51,1.76C54.72,304.46,53.74,302.6,52.53,303.46Z"/><path class="cls-1" d="M357.19,156.62c-1.2,0-1.68,1.36-.2.52C357.64,156.85,357.74,156.59,357.19,156.62Z"/><path class="cls-1" d="M7,300.49c-.26-.58-2.93-.2-2.63.47S7.29,301.16,7,300.49Z"/><path class="cls-1" d="M27.51,286.25a.65.65,0,0,0-1.18.53A.65.65,0,0,0,27.51,286.25Z"/><path class="cls-1" d="M42.57,278.73c-.38-.84-1.71.94-1.61,1.16S42.94,279.57,42.57,278.73Z"/><path class="cls-1" d="M39.91,279.93c-.76-.53-1.84-.15-1.47.67S40.7,280.57,39.91,279.93Z"/><path class="cls-1" d="M107.86,243.62c.63-1.92-.37-2.88-1.61-1.69-1.5,1.39,1.32-2.26-.19-3.25-.7-.46-1-.38-1.17.25s-3.24,4.59-4,4.93c-.12.06-.42-.3-.63-.77-.53-1.17-2.82.22-4.21.9.64.16,4.07.93,3.16,1.34-.62.29-1,2,1.76.27,1.4-1,2-1.11,2.62-.47,1.47,1.45-2.17.53-1.63,1.73S107.3,245.36,107.86,243.62Z"/><path class="cls-1" d="M111.36,239.41c-.46-1-.89-.44-2.54-.27-.75.06-.94.43-.57,1.25C109,242.14,111.8,240.39,111.36,239.41Z"/><path class="cls-1" d="M102.2,241.14c-.37-.82-1.36-.26-1.47.66S102.54,241.89,102.2,241.14Z"/><path class="cls-1" d="M100.4,240.6c-1.07-1.21-2.11.62-.26.69C100.61,241.22,100.74,240.88,100.4,240.6Z"/><path class="cls-1" d="M106.13,235.39c-3.54-.65-1.9,2,.9.73C107.56,235.88,107.22,235.6,106.13,235.39Z"/><path class="cls-1" d="M100.7,238.13c-.93-.86-3.82.43-2.44.25,1.71-.23,1.39,1.07,2.35.64A.54.54,0,0,0,100.7,238.13Z"/><path class="cls-1" d="M103.42,236c-.52-1.15-1.72-.67-1.18.53S103.94,237.12,103.42,236Z"/><path class="cls-1" d="M113,231.29c.11-1-1.82-.1-1.48.66S113,232.12,113,231.29Z"/><path class="cls-1" d="M107.7,233.68c.15-1.25,3.61-.66.87-1.38-1.95-.54-3.86.25-3.35,1.37S107.58,234.66,107.7,233.68Z"/><path class="cls-1" d="M464.5,5c-.32-.7-.79-.49-2.06.93-.85,1-.77,1,.65.35C464.06,5.94,464.66,5.39,464.5,5Z"/><path class="cls-1" d="M464.59,2.08c-.34-.74-1.19.52-1,.95S465,3,464.59,2.08Z"/><path class="cls-1" d="M462.38,3.65c-1,0-3.07-1.14-2.44.25C460.48,5.09,462.7,3.77,462.38,3.65Z"/><path class="cls-1" d="M464.11.24c-.82-.57-2,0-1.18.54C463.55,1.28,465,1,464.11.24Z"/><path class="cls-1" d="M461.76,1.16c.17-.76-3.93,1-4.13,1.87C457.6,3.78,461.73,1.91,461.76,1.16Z"/></g></g></svg>