<svg id="Layer_1" data-name="Layer 1" xmlns="http://www.w3.org/2000/svg" xmlns:xlink="http://www.w3.org/1999/xlink" viewBox="0 0 1500 465.91"><defs><style>.cls-1{fill:none;}.cls-2{clip-path:url(#clip-path);}.cls-3{fill:#e5e5e5;}</style><clipPath id="clip-path"><rect class="cls-1" y="-621" width="1500" height="1085.91"/></clipPath></defs><g class="cls-2"><path class="cls-3" d="M0-127.86c39.62,13.9,69.55-28.46,103.87-40,26.08-8.76,50.4-1.66,76.44,3.45,26.9,5.27,54.94,11.21,82.48,10.79,40.12-.61,77.68-31.37,115.37-41.09,25.6-6.6,59.14,8.72,83.24,17.51,20.86,7.61,42.16,16.67,64.16,20.4,25.37,4.29,47.29-7.22,72.75-7.34,37.33-.19,76.61,15,110.66,29.13,46.29,19.15,88.5,18.92,137.89,11.43,84.58-12.83,169.21-25,254.43-9.74,53.93,9.67,103.74,26.94,149.47,57.43,75.37,50.24,153.43,112.45,249.33,96.19V10.2c-96.25,17.47-175.35-42-252-91.71-46-29.78-96-48-149.62-59-86-17.54-168.89-5.19-254,10.71-49,9.16-92,11.3-138.46-7.49-34.1-13.79-72.68-29.62-110-29.84-25.22-.16-47,11-72.13,6.83-21.86-3.63-43.1-12.31-63.94-19.59-24.07-8.4-57.5-23.21-82.9-16.78C339.46-187.12,302-158,262-157.15c-27.28.54-55.08-4.59-81.83-9.39-25.91-4.64-50.29-11.7-76.24-3.46C69.5-159.07,39.29-117.92,0-131.31Z"/><path class="cls-3" d="M0-102.38c42.47,18,70.63-34,104.31-49.48,53.77-24.75,111.49,25.43,167,24.48,17.91-.3,36.13-12.86,52.43-20.13,21.77-9.7,46.13-29.69,69-33,48.54-7,96.85,37.18,142.35,48.7,27.55,7,51.61-8.45,79.08-10.58,38.64-3,82.15,8.62,116.77,25.4,42.69,20.69,81.4,33.54,129,38.62,42.08,4.5,86.09,12.41,128.13,8.14,43.75-4.44,87.49-10.4,131.55-10.3,25.55.06,51.19,2.08,76.21,7.38,29.06,6.14,49.88,19,72.93,37.61,67.08,54.09,137.54,136.67,231.31,130V84c-94.21,8.08-165.77-71.8-234-125.44-23.21-18.24-44.44-31.08-73.27-37.66-24.92-5.68-50.46-8.32-76-9-43.81-1.14-87.45,3.74-131,8.11-42.1,4.23-86-1.76-128.35-4.73-47.73-3.35-86.75-14.5-129.64-34.88-34.59-16.44-77.52-28.56-116.05-25.89-27.32,1.9-51.09,16.95-78.46,10.1-45.31-11.35-93.89-54.13-142.1-47.39-22.7,3.18-46.84,22.71-68.56,32-16.33,7-34.49,19.21-52.29,19.56-55.06,1.09-112.68-46.66-166-23.13C70.52-139.32,42.1-88.57,0-106Z"/><path class="cls-3" d="M0-77.73c45,22.62,71.46-38,103.86-57,56.52-33.15,115.43,33.37,173.87,33.07,18.82-.09,37.73-14.9,54.11-23.62,22.42-11.94,48.39-34.72,73-38.92,50.62-8.63,96.07,44,142.73,56.32,28.43,7.51,54.89-10.32,83.09-13.73,39.31-4.76,87.07,3.75,121.71,23.36,41.18,23.32,79,46.29,124,62.5,40,14.41,83.37,34.7,126.21,30.44,45.7-4.55,90.06-17.6,135.43-24.29,25.66-3.77,51.82-5.87,77.7-3.08,30.3,3.26,48.78,16.39,70.75,37.13,60.27,56.85,123.1,156.47,213.67,160.2V154.24C1409,152.11,1345,54.88,1283.88-1.58,1261.74-22,1243-35.12,1212.83-38.8c-25.74-3.15-51.84-1.66-77.49,1.57-45.23,5.7-89.48,17.72-134.87,22.31-42.61,4.31-86.2-14.21-126.56-27.21-45.53-14.66-83.16-36.66-124.79-59.1-35-18.88-81.45-28.11-121-23.53C600-121.5,574-104,545.64-111.47c-46.51-12.26-92.51-63.68-142.84-55.33-24.32,4-50,26.44-72.31,38.07-16.34,8.53-35.1,23-53.77,23.14-58,.36-116.66-63.73-172.79-31.85C71.33-118.92,44.61-59.56,0-81.44Z"/><path class="cls-3" d="M0-54.44c47.36,27.9,72.16-40.26,103.43-62.1,58.73-41,119.88,40.34,181,40,20-.1,40.17-16.51,57.12-26.27,23.8-13.71,51.51-38.46,78.22-43.9,52.93-10.77,92,49.84,140.28,61.1,29.19,6.81,57.59-12.22,86.47-16.26,41-5.74,90.75,1.67,126.33,23.89,40.43,25.25,77,56.54,118,81.35,37,22.34,78.75,52.7,123.37,49.36,47.7-3.57,93-22.83,138.74-35.22,25.63-6.94,52.19-12.57,78.87-11.82C1262.66,6.58,1280,20,1301,42c37,39,67.8,83.44,104.59,122.62,26.61,28.34,54.86,57.06,94.54,63.38v-9.79c-39.95-5.59-68.71-33.39-95.89-61.45-37.19-38.39-68.28-82.23-105.35-120.7C1277.76,14.22,1260.3.82,1229.47-.39c-26.56-1-53.07,4.06-78.7,10.55C1105,21.73,1059.91,40,1012.52,43.85c-44.33,3.58-86.43-25.34-123.91-46.56-41.69-23.6-78.5-53.73-119-78.69C734.19-103.18,684.65-110.64,644-105c-28.86,4-56.8,22.78-86,15.9-48.21-11.36-88.2-70.94-140.9-60.52-26.34,5.21-53.75,29.7-77.27,43.15-16.82,9.62-36.75,25.82-56.53,25.9-60.69.26-121.42-78.82-179.81-39C72.07-98.18,47-31.14,0-58.13Z"/><path class="cls-3" d="M0-33.06C54.06-5,67.56-68.35,102.12-96.29,161.18-144,226.89-54.24,288.54-52c23.12.85,47.42-18.13,66.85-29.43C380.15-95.8,405.15-116.07,432-126c56.53-21,91.79,52.71,143.35,60.61,28.5,4.36,58.25-14.12,87-17.81,42.81-5.48,92.92,2.74,129.37,27.13,41,27.46,76.21,65.33,114.28,96.64,33.79,27.79,72.73,62.64,118.86,60.74,49-2,95.2-26.45,140.56-42.6,23.67-8.43,48.15-15.83,73.38-17.1,33.41-1.69,52,12,73.66,36.24,34,38.13,62,81.6,93.22,122,25,32.24,53.15,71.3,94.43,82.26v-8.56c-38.36-9.59-64.38-42.41-88.57-71.85-35.06-42.66-64.61-90-101.74-130.92C1289.5,48.38,1272,35.13,1241.3,35.4c-27.18.24-54,8.42-79.5,17.26-45.5,15.79-91.88,39.55-140.89,41.11-45.84,1.46-86-34.51-120.13-61.56C863.27,2.47,828.6-33.12,788.7-59.59,752-83.93,702-92.25,658.89-86.2c-28.27,4-60.37,24.72-88.66,17.76-47.75-11.76-82.82-75.29-135.75-62.75-28.76,6.81-58,32.37-83.62,47.25-17.92,10.43-39.53,27.39-60.76,27.83-63.32,1.3-126.53-91.27-187-44.37C67.79-73.15,54.13-9.43,0-36.6Z"/><path class="cls-3" d="M0-14.13C24.1.93,42.23,2.5,60.84-20.9,74.71-38.36,84-59.22,100.8-74.35c63.33-56.9,131.59,51.43,198.44,46.91,24.46-1.66,51.48-20.8,72.27-32.34C398.88-75,426.78-96.33,456-107.42c56.51-21.47,82.16,58.58,133.61,61.71C615.5-44.13,644.8-61.56,671-64.8,778.85-78.12,844.39-1.37,913,68.07c30.31,30.66,67,66.85,112.49,69.77,49.17,3.16,96.66-24.36,140.66-42.56,25-10.32,51.31-20.48,78.6-21.7,31.63-1.41,52.82,12.71,73.61,35.86,34.84,38.79,62.27,84.25,92.5,126.57,23.39,32.75,49.16,74.7,89.19,88.08v-6.66c-40.23-13.16-67-55.51-90.5-88.17-30.4-42.23-57.91-87.65-92.84-126.39-21.11-23.41-41.45-36.84-73.81-34.75-25.5,1.65-50,10.39-73.55,19.84-44.66,17.94-92.21,45.73-141.88,44.4-46.06-1.24-83.66-37.65-114.75-68C843.91-3,779.88-80.06,673.51-68.54c-28.84,3.12-60.4,21.69-88.52,18.22-52.26-6.44-77.7-81.93-135.76-59-28.86,11.39-55.8,31.57-82.89,46.72-20.88,11.68-47.56,30.8-72.13,30.43-63.74-1-131.7-99.34-192.5-46.9C67-49.18,55.71,16.24,0-17.38Z"/></g></svg>