<svg id="Layer_1" data-name="Layer 1" xmlns="http://www.w3.org/2000/svg" xmlns:xlink="http://www.w3.org/1999/xlink" viewBox="0 0 1500 465.91"><defs><style>.cls-1{fill:none;}.cls-2{clip-path:url(#clip-path);}.cls-3{fill:#e5e5e5;}</style><clipPath id="clip-path"><rect class="cls-1" width="1500" height="1085.91"/></clipPath></defs><g class="cls-2"><path class="cls-3" d="M1500,592.77c-39.62-13.9-69.55,28.46-103.87,40-26.08,8.76-50.4,1.66-76.44-3.45-26.9-5.27-54.94-11.21-82.48-10.79-40.12.61-77.68,31.37-115.37,41.08-25.6,6.6-59.14-8.71-83.24-17.5-20.86-7.61-42.16-16.67-64.16-20.4-25.37-4.29-47.29,7.22-72.75,7.34-37.33.19-76.61-15-110.66-29.13-46.29-19.15-88.5-18.92-137.89-11.43-84.58,12.83-169.21,25-254.43,9.74-53.93-9.67-103.74-26.94-149.47-57.43C173.87,490.55,95.81,428.34-.09,444.6v10.11c96.25-17.47,175.35,42.05,252,91.71,46,29.78,96.05,48.05,149.62,59,86,17.54,168.89,5.19,254-10.71,49-9.16,92-11.3,138.46,7.49,34.1,13.79,72.68,29.62,110,29.84,25.22.16,47-11,72.13-6.83,21.86,3.63,43.1,12.31,63.94,19.58,24.07,8.41,57.5,23.22,82.9,16.79C1160.54,652,1198,622.86,1238,622.06c27.28-.54,55.08,4.59,81.83,9.39,25.91,4.64,50.29,11.7,76.24,3.46,34.44-10.93,64.65-52.09,103.94-38.69Z"/><path class="cls-3" d="M1500,567.29c-42.47-18-70.63,34-104.31,49.48-53.77,24.74-111.49-25.43-167-24.48-17.91.3-36.13,12.86-52.43,20.13-21.77,9.7-46.13,29.69-69,33-48.54,7-96.85-37.18-142.35-48.7-27.55-7-51.61,8.45-79.08,10.58-38.64,3-82.15-8.62-116.77-25.4-42.69-20.69-81.4-33.54-129-38.62-42.08-4.5-86.09-12.41-128.13-8.14-43.75,4.44-87.49,10.4-131.55,10.3-25.55-.06-51.19-2.08-76.21-7.38-29.06-6.15-49.88-19-72.93-37.61C164.14,446.34,93.68,363.76-.09,370.4v10.48c94.21-8.09,165.77,71.79,234,125.43,23.21,18.24,44.44,31.09,73.27,37.67,24.92,5.68,50.46,8.31,76,9,43.81,1.14,87.45-3.74,131-8.11,42.1-4.23,86,1.76,128.35,4.73,47.73,3.34,86.75,14.5,129.64,34.88,34.59,16.43,77.52,28.56,116.05,25.88,27.32-1.89,51.09-16.94,78.46-10.09,45.31,11.35,93.89,54.13,142.1,47.39,22.7-3.18,46.84-22.72,68.56-32.06,16.33-7,34.49-19.2,52.29-19.55,55.06-1.09,112.68,46.66,166,23.13,33.85-14.93,62.27-65.68,104.37-48.25Z"/><path class="cls-3" d="M1500,542.63c-45-22.61-71.46,38-103.86,57-56.52,33.15-115.43-33.38-173.87-33.08-18.82.1-37.73,14.91-54.11,23.63-22.42,11.94-48.39,34.72-73,38.92-50.62,8.63-96.07-44-142.73-56.32-28.43-7.51-54.89,10.32-83.09,13.73-39.31,4.76-87.07-3.76-121.71-23.37-41.18-23.31-79-46.28-124-62.49-40-14.42-83.37-34.7-126.21-30.44-45.7,4.55-90.06,17.6-135.43,24.28-25.66,3.78-51.82,5.88-77.7,3.09-30.3-3.26-48.78-16.4-70.75-37.13C153.31,403.62,90.48,304-.09,300.27v10.4C91,312.8,155,410,216.12,466.49c22.14,20.45,40.9,33.53,71.05,37.22,25.74,3.15,51.84,1.66,77.49-1.58,45.23-5.69,89.48-17.71,134.87-22.3,42.61-4.31,86.2,14.21,126.56,27.21,45.53,14.66,83.16,36.66,124.79,59.1,35,18.88,81.45,28.1,121,23.53,28.12-3.26,54.18-20.75,82.51-13.29,46.51,12.26,92.51,63.68,142.84,55.33,24.32-4,50-26.44,72.31-38.07,16.34-8.53,35.1-23,53.77-23.14,58-.36,116.66,63.73,172.79,31.85,32.6-18.52,59.32-77.88,103.93-56Z"/><path class="cls-3" d="M1500,519.35c-47.36-27.91-72.16,40.26-103.43,62.1-58.73,41-119.88-40.34-181-40-20,.1-40.17,16.51-57.12,26.27-23.8,13.71-51.51,38.46-78.22,43.89-52.93,10.78-92-49.83-140.28-61.09-29.19-6.81-57.59,12.22-86.47,16.26-41,5.74-90.75-1.68-126.33-23.89-40.43-25.25-77-56.54-118-81.35-37-22.35-78.75-52.7-123.37-49.36-47.7,3.57-93,22.83-138.74,35.22-25.63,6.94-52.19,12.57-78.87,11.82-30.87-.86-48.25-14.3-69.17-36.33-37-39-67.8-83.43-104.59-122.61C67.84,271.91,39.59,243.19-.09,236.87v9.79c40,5.59,68.71,33.38,95.89,61.45,37.19,38.38,68.28,82.23,105.35,120.7,21.09,21.88,38.55,35.28,69.38,36.49,26.56,1,53.07-4.06,78.7-10.55,45.76-11.57,90.86-29.86,138.25-33.69,44.33-3.58,86.43,25.34,123.91,46.56,41.69,23.6,78.5,53.73,119,78.69,35.39,21.78,84.93,29.24,125.6,23.61,28.86-4,56.8-22.78,86-15.9,48.21,11.35,88.2,70.94,140.9,60.52,26.34-5.21,53.75-29.7,77.27-43.15,16.82-9.62,36.75-25.82,56.53-25.9,60.69-.26,121.42,78.82,179.81,39C1427.93,563.09,1453,496.05,1500,523Z"/><path class="cls-3" d="M1500,498c-54.06-28.05-67.56,35.29-102.12,63.23-59.06,47.76-124.77-42.05-186.42-44.33C1188.34,516,1164,535,1144.61,546.3c-24.76,14.4-49.76,34.68-76.56,44.63-56.53,21-91.79-52.71-143.35-60.61-28.5-4.36-58.25,14.12-87,17.81-42.81,5.48-92.92-2.74-129.37-27.13-41-27.46-76.21-65.33-114.28-96.64-33.79-27.79-72.73-62.64-118.86-60.74-49,2-95.2,26.45-140.56,42.6-23.67,8.43-48.15,15.83-73.38,17.1-33.41,1.69-52-12-73.66-36.24-34.05-38.13-62-81.6-93.22-122-25-32.24-53.15-71.3-94.43-82.26v8.56c38.36,9.59,64.38,42.41,88.57,71.85,35.06,42.66,64.61,90,101.74,130.92,20.28,22.36,37.74,35.61,68.48,35.34,27.18-.25,54-8.42,79.5-17.26,45.5-15.8,91.88-39.55,140.89-41.11,45.84-1.46,86,34.51,120.13,61.56C636.73,462.44,671.4,498,711.3,524.5,748,548.84,798,557.16,841.11,551.11c28.27-4,60.37-24.72,88.66-17.76,47.75,11.76,82.82,75.29,135.75,62.75,28.76-6.81,58-32.37,83.62-47.25,17.92-10.43,39.53-27.4,60.76-27.83,63.32-1.3,126.53,91.27,187,44.37,35.26-27.33,48.92-91.05,103-63.88Z"/><path class="cls-3" d="M1500,479c-24.1-15.06-42.23-16.63-60.84,6.77-13.87,17.46-23.12,38.32-40,53.45-63.33,56.9-131.59-51.43-198.44-46.91-24.46,1.65-51.48,20.8-72.27,32.33-27.37,15.19-55.27,36.56-84.45,47.65-56.51,21.46-82.16-58.58-133.61-61.71C884.5,509,855.2,526.47,829,529.71,721.15,543,655.61,466.28,587,396.83c-30.31-30.65-67-66.84-112.49-69.76-49.17-3.16-96.66,24.35-140.66,42.56-25,10.32-51.31,20.48-78.6,21.7-31.63,1.41-52.82-12.71-73.61-35.86-34.84-38.8-62.27-84.25-92.5-126.58C65.71,196.15,39.94,154.2-.09,140.82v6.66c40.23,13.16,67,55.51,90.5,88.17,30.4,42.23,57.91,87.65,92.84,126.39,21.11,23.41,41.45,36.84,73.81,34.75,25.5-1.65,50-10.39,73.55-19.84,44.66-17.94,92.21-45.73,141.88-44.4,46.06,1.24,83.66,37.64,114.75,68C656.09,467.88,720.12,545,826.49,533.45c28.84-3.12,60.4-21.69,88.52-18.22,52.26,6.44,77.7,81.93,135.76,59,28.86-11.39,55.8-31.57,82.89-46.72,20.88-11.68,47.56-30.8,72.13-30.43,63.74,1,131.7,99.34,192.5,46.9,34.67-29.91,46-95.33,101.71-61.71Z"/></g></svg>