<svg xmlns="http://www.w3.org/2000/svg" viewBox="0 0 1071.59 1106.16"><defs><style>.cls-1{fill:#3e3d3d;}</style></defs><g id="Layer_2" data-name="Layer 2"><g id="Layer_1-2" data-name="Layer 1"><path class="cls-1" d="M535.71,0a13.58,13.58,0,0,0-11.29,6l0,0,0,0L375.26,229.87A13.57,13.57,0,0,0,386.56,251l99.66,0a1.35,1.35,0,0,1,1,.4,1.34,1.34,0,0,1,.39.95l.07,329.53h0q7,6.93,13.61,14.25l-.07-358.69-.06-.07-114.48,0L535.71,13.68l149.13,223.6-114.48,0-.06.06.06,284.09q6.6-7.31,13.6-14.26h0l0-254.93a1.34,1.34,0,0,1,1.34-1.34l99.67,0a13.58,13.58,0,0,0,11.29-21.1l0,0L547,6a13.57,13.57,0,0,0-11.29-6Z"/><path class="cls-1" d="M834.25,312.08l223.57,149L834.31,610.13l0-114.42-.09-.08c-145.74,0-263.86,118.19-263.83,263.92l.06,298.39a34.52,34.52,0,0,1-69,0l-.06-298.4c0-183.86,149-332.94,332.85-333l.1-.09Zm-.09-13.77a13.59,13.59,0,0,0-6.41,1.6h0a13.64,13.64,0,0,0-7.18,12l0,100a1.31,1.31,0,0,1-1.22,1.31h-.08C634.77,421.05,487.6,573.13,487.64,759.56l.05,298.4a48.22,48.22,0,0,0,96.43,0l0-298.39c0-133.13,103.93-242,235.1-249.78h.2a1.31,1.31,0,0,1,1.23,1.31l0,99.23a13.61,13.61,0,0,0,7.18,12h0a.42.42,0,0,1,.12.08H828a13.61,13.61,0,0,0,13.77-.77h0l223.71-149.2h0l.06,0a13.61,13.61,0,0,0,.06-22.59h0v0l0,0L841.71,300.59h0a13.53,13.53,0,0,0-7.54-2.28Z"/><path class="cls-1" d="M237.38,373a13.52,13.52,0,0,0-7.48,2.25l-.07,0L6.06,524.53a13.62,13.62,0,0,0,0,22.66L229.89,696.34l.13,0-.11.05a13.63,13.63,0,0,0,14,.66l-.14,0,.19,0,0,.07a13.62,13.62,0,0,0,7.19-12l0-99.22a1.27,1.27,0,0,1,.43-1,1.29,1.29,0,0,1,.87-.34h.13c108.7,6.43,198.72,82.26,226.39,183.8v-8.72q0-14.84,1.19-29.36c-40.35-94.05-133.8-159.9-242.63-159.89l-.1.11,0,114.39L13.8,535.86l223.48-149,0,114.39.11.11A332.1,332.1,0,0,1,487.64,614.57v0h0q7.08,8,13.61,16.53l1,1.28q2.82-7.38,6-14.6c-2.25-2.85-4.57-5.66-6.93-8.43h0q-6.57-7.74-13.61-15.07a345.58,345.58,0,0,0-235.27-106.4h-.06a1.29,1.29,0,0,1-1.31-1.3l0-100a13.59,13.59,0,0,0-7.15-12l0,0a13.67,13.67,0,0,0-6.42-1.61Z"/></g></g></svg>