<svg xmlns="http://www.w3.org/2000/svg" viewBox="0 0 1500 1107.37"><defs><style>.cls-1{fill:#3e3d3d;}</style></defs><g id="Layer_2" data-name="Layer 2"><g id="Layer_1-2" data-name="Layer 1"><path class="cls-1" d="M1490,591.93a79.67,79.67,0,0,0-108.32-31l-344,191a18,18,0,1,0,17.45,31.38l344-191a42.87,42.87,0,0,1,33.27-3.85,43.78,43.78,0,0,1,9.21,80.41l-704,391a93.57,93.57,0,0,1-91.42-.39L270.34,846.62a18.06,18.06,0,0,0-8.82-2.31H161.25V590.74h199.8l183,119.85a18,18,0,0,0,9.84,2.94H890a43.8,43.8,0,0,1,0,87.59H553.89a17.94,17.94,0,0,0,0,35.87H890a79.66,79.66,0,0,0,0-159.32H559.25l-183-119.85a17.91,17.91,0,0,0-9.85-3H161.25V507.21a17.92,17.92,0,0,0-17.93-17.93H17.93a17.93,17.93,0,1,0,0,35.86H125.38v384.8H35.86V630.42a17.93,17.93,0,0,0-35.86,0V927.87A17.92,17.92,0,0,0,17.93,945.8H143.32a17.92,17.92,0,0,0,17.93-17.93v-47.7h95.54l371.7,210.52a130.09,130.09,0,0,0,126.51.53l704-391A79.79,79.79,0,0,0,1490,591.93Z"/><path class="cls-1" d="M812.72,525.14c144.78,0,262.56-117.78,262.56-262.57S957.5,0,812.72,0,550.15,117.78,550.15,262.57,667.93,525.14,812.72,525.14Zm0-489.28c125,0,226.7,101.71,226.7,226.71S937.71,489.28,812.72,489.28,586,387.57,586,262.57,687.72,35.86,812.72,35.86Z"/><path class="cls-1" d="M812.72,265.3A76.69,76.69,0,1,0,736,188.64,76.75,76.75,0,0,0,812.72,265.3Zm0-117.5a40.82,40.82,0,1,1-40.84,40.84A40.88,40.88,0,0,1,812.72,147.8Z"/><path class="cls-1" d="M721.41,413.2a17.92,17.92,0,0,0,17.93-17.93v-20.1a73.36,73.36,0,0,1,146.71,0v20.1a17.94,17.94,0,0,0,35.87,0v-20.1a109.22,109.22,0,0,0-218.44,0v20.1A17.92,17.92,0,0,0,721.41,413.2Z"/></g></g></svg>