<svg xmlns="http://www.w3.org/2000/svg" viewBox="0 0 1620.13 1599.28"><defs><style>.cls-1{fill:none;stroke:#231f20;stroke-miterlimit:10;stroke-width:18px;}</style></defs><g id="Layer_2" data-name="Layer 2"><g id="Layer_1-2" data-name="Layer 1"><path class="cls-1" d="M1170.6,684.53c38.45-30.07,72.1-96.43-12.18-134C1076.93,514.24,1040,572.78,1046.05,600c8,35.95-12.63,85.56-61.68,61l-171.67-86-6.48-3.41,1-1.87,86-171.67c24.58-49-25-69.64-61-61.68-27.18,6-85.72-30.88-49.41-112.37,37.55-84.28,103.91-50.63,134-12.17,37.79,48.32,70.26,4.52,70.26,4.52L1089.43,12.08l491.71,246.41a54.32,54.32,0,0,1,24.22,72.89L1347.58,845.75l-181.51-91S1122.27,722.32,1170.6,684.53Z"/><path class="cls-1" d="M541.5,602.51C497.38,581.6,423,581.25,427.17,673.42c4.05,89.13,72.91,95.88,94.52,78.32,28.58-23.22,82.15-27,82.15,27.83v192l-.06,2.13-.89,0h-192c-54.86,0-51,53.58-27.83,82.15,17.56,21.61,10.81,90.48-78.32,94.53-92.17,4.19-91.82-70.22-70.91-114.34,26.27-55.42-27.43-64.83-27.43-64.83H9V401a54.3,54.3,0,0,1,54.31-54.31h543V575.08S596.93,628.78,541.5,602.51Z"/><path class="cls-1" d="M206.38,971.21s53.7,9.41,27.43,64.83c-20.91,44.12-21.26,118.53,70.91,114.34,89.13-4.05,95.88-72.92,78.32-94.53-23.21-28.57-27-82.15,27.83-82.15h192l.89,0-.1,3.17v192c0,54.87,53.58,51,82.16,27.83,21.6-17.56,90.47-10.81,94.52,78.32,4.19,92.17-70.22,91.82-114.33,70.91-55.43-26.27-64.84,27.43-64.84,27.43v216.88H63.31A54.31,54.31,0,0,1,9,1536V971.21Z"/><path class="cls-1" d="M666,1346c44.11,20.91,118.52,21.26,114.33-70.91-4.05-89.13-72.92-95.88-94.52-78.32-28.58,23.21-82.16,27-82.16-27.83v-192l.1-3.17,7.32.14h192c54.86,0,51-53.58,27.82-82.16-17.55-21.6-10.8-90.47,78.32-94.52,92.18-4.19,91.83,70.22,70.92,114.33-26.27,55.43,27.43,64.84,27.43,64.84h203V1536a54.32,54.32,0,0,1-54.31,54.31H601.19V1373.4S610.6,1319.7,666,1346Z"/></g></g></svg>