<svg xmlns="http://www.w3.org/2000/svg" viewBox="0 0 376 192"><defs><style>.cls-1,.cls-2{fill:none;stroke:#3e3d3d;stroke-width:5px;}.cls-1{stroke-miterlimit:10;}.cls-2{stroke-linecap:round;stroke-linejoin:round;}</style></defs><g id="Layer_2" data-name="Layer 2"><g id="Large_Preview" data-name="Large Preview"><circle class="cls-1" cx="132" cy="164" r="24"/><polyline class="cls-2" points="76 20 76 4 260 4 260 164 156 164"/><polyline class="cls-2" points="108 164 76 164 76 132"/><line class="cls-2" x1="4" y1="44" x2="92" y2="44"/><line class="cls-2" x1="52" y1="76" x2="124" y2="76"/><line class="cls-2" x1="20" y1="108" x2="100" y2="108"/><circle class="cls-1" cx="316" cy="164" r="24"/><line class="cls-1" x1="260" y1="164" x2="292" y2="164"/><path class="cls-2" d="M260,44h36.83c11.45,0,17.68,2.77,24.08,12.28l22.76,35.91S358.88,107.38,364,113c7.25,7.8,8,19,8,27v24H340"/><polyline class="cls-2" points="283 78 289.88 97.01 322.09 101.67"/></g></g></svg>