<svg xmlns="http://www.w3.org/2000/svg" viewBox="0 0 517.73 400.32"><defs><style>.cls-1{fill:#3e3d3d;fill-rule:evenodd;}</style></defs><g id="Layer_2" data-name="Layer 2"><g id="Layer_1-2" data-name="Layer 1"><path class="cls-1" d="M.17,223.23l-.14.7,0,.64v35.16a5,5,0,0,0,3,4.62,6,6,0,0,0,1.2.53l1.44.53v93.11a5.92,5.92,0,0,0,1.77,4.13,6.74,6.74,0,0,0,3.1,1.87l46.94,13.15,20.07,5.61,26.88,7.55a5.79,5.79,0,0,0,1.76.28l.64,0,.25,0,.24,0c.21,0,.42,0,.64,0a5.84,5.84,0,0,0,1.76-.28l26.91-7.55,20-5.61,47-13.15a7.15,7.15,0,0,0,3.11-1.87,6.06,6.06,0,0,0,1.73-4.13V265.41l1.48-.53a9,9,0,0,0,1.2-.53,5.1,5.1,0,0,0,3-4.62V224.57l0-.64-.18-.7a4.51,4.51,0,0,0-3.28-3.39l-.31-.07-.07,0-1.1-.31L159.46,205l-49.7-14.11a8.58,8.58,0,0,0-2.08-.31,2.37,2.37,0,0,0-.46,0h-.35a2.17,2.17,0,0,0-.46,0,8.8,8.8,0,0,0-2.08.31L54.67,205,4.94,219.45l-1.41.39a4.52,4.52,0,0,0-3.36,3.39Zm106.88,22.71-21.87-5.71L57.1,232.89l-11.64-3.07-21.83-5.68,33.58-9.94,49.84-14.36,49.87,14.36,33.57,9.94-21.83,5.68L157,232.89l-28,7.34Zm94.48,11.32-1.94.53-6.84,1.87-.6.18-23.6,6.42-14.45,3.91L111.84,281.7V254.55l47.55-12.45,11.63-3,33.51-8.74v26.13l-2.89.81Zm-89.69,34.36,87-23.71v88L154.06,368.5l-20,5.61-22.19,6.21ZM12.55,257.26h-.1l-2.89-.81V230.32l33.5,8.74,11.68,3,47.51,12.45V281.7L60,270.17l-14.46-3.91-23.59-6.42-.71-.22-6.73-1.83Zm2.65,10.65,87.05,23.71v88.7L80.1,374.11,60,368.5,15.2,355.91Z"/><path class="cls-1" d="M164.43,159.35l.18.36a5.53,5.53,0,0,0,3,3l9.8,3.7,9.77,3.7,17.53,6.67v0l2,.77a5.24,5.24,0,0,0,1.66.35,4.89,4.89,0,0,0,3.24-1.05l.32-.29a5.07,5.07,0,0,0,1.41-2.11l.14-.28a7.13,7.13,0,0,0,.25-1.7c.56-17.67.88-35.3,1.34-53l.1-3.35,6.35,2.85,37.46,16.93V388.29L222,368.86l-1.16-.6a4.81,4.81,0,0,0-4.55,8.36l43.2,22.6c1.8,1,7.2,1.42,9.17.85l71.14-19.93.29-.07h0l49.55-13.89,121-33.9a10.71,10.71,0,0,0,4.66-2.78,8,8,0,0,0,2.36-5.47V77.35a7,7,0,0,0-.18-1.52c-.07-.28-.14-.56-.24-.84l-.07-.11v-.14a6.66,6.66,0,0,0-.81-1.73,5.16,5.16,0,0,0-2.3-1.87l-.38-.18v0q-24.39-11.12-48.82-22.15L436.57,35.91,359.05.71A10.68,10.68,0,0,0,354.82,0h0a19.12,19.12,0,0,0-4,.46q-34.23,8-68.46,16.05L229.75,28.85,140.66,49.73l-31.92,7.52a10.34,10.34,0,0,0-3.64,1.51l-.17.18a5.21,5.21,0,0,0-1.55,1.87l0,.1-.07.11a3.44,3.44,0,0,0-.21.39l-.18.35a7.48,7.48,0,0,0-.63,2.93V174.24a4.8,4.8,0,0,0,9.59,0V69.34L115,70.79C128.74,77,142.49,83.2,156.21,89.41l8.29,3.74L164,156.88a7.45,7.45,0,0,0,.42,2.47ZM397,28.39,170.25,85.28,160.12,80.7q-15.7-7.14-31.49-14.21l-6-2.72L142.84,59l89.1-20.88q26.3-6.18,52.58-12.34,34.19-8,68.43-16a8.58,8.58,0,0,1,1.87-.25h.53ZM206,106.23l-1.48,60.21-13.94-5.29-9.77-3.7-7.19-2.75L174,94.17,411,34.78l21.69,9.84,10.62,4.79Zm60.27,21.31a3.68,3.68,0,0,1-.63.17l-.85.29-.81-.43c-.1,0-.21-.1-.32-.14L227.21,111,457.49,55.9,461,57.49q14.76,6.66,29.52,13.37l5.92,2.71-30,7.06q-39.57,9.25-79.15,18.55-26.51,6.19-53,12.42-34,8-68,15.94Zm73.15,242.8h0l-70.75,19.82V136.81l1.73-.38q33-7.78,66.06-15.52,26.51-6.19,53-12.42Q429,99.18,468.6,89.91l39.54-9.25V323.08L387.09,357Z"/></g></g></svg>