<svg xmlns="http://www.w3.org/2000/svg" viewBox="0 0 2153.02 2171.33"><defs><style>.cls-1{fill:#3e3d3d;}</style></defs><g id="Layer_2" data-name="Layer 2"><g id="Layer_1-2" data-name="Layer 1"><path class="cls-1" d="M1927.36,236.46h-92.24V83.08A83.18,83.18,0,0,0,1752,0h-86.11a83.17,83.17,0,0,0-83.07,83.08V236.46H378.33V83.08a28.69,28.69,0,0,0-57.38,0V236.46h-95.3C101.22,236.46,0,337.69,0,462.11v687.52a28.7,28.7,0,0,0,28.69,28.69H172v71.06a28.68,28.68,0,0,0,28.68,28.69H321v134.25a28.69,28.69,0,0,0,57.38,0V1278.07H498.55a28.69,28.69,0,0,0,28.69-28.69v-71.06H580a28.7,28.7,0,0,0,28.69-28.69V1028.32A128.87,128.87,0,0,1,737.43,899.59h678.14a128.87,128.87,0,0,1,128.74,128.73v462H340.51C152.75,1490.29,0,1643.05,0,1830.8v311.84a28.7,28.7,0,0,0,28.69,28.69H2124.33a28.69,28.69,0,0,0,28.69-28.69V462.11C2153,337.69,2051.8,236.46,1927.36,236.46ZM1640.24,83.08a25.72,25.72,0,0,1,25.69-25.7H1752a25.74,25.74,0,0,1,25.7,25.7V236.46h-137.5ZM469.86,1220.69H229.41v-42.37H469.86ZM2095.64,2114H57.38V2019.7H2095.64Zm0-151.64H57.38V1830.8c0-156.12,127-283.13,283.13-283.13H1573a28.68,28.68,0,0,0,28.69-28.69V1028.32c0-102.62-83.49-186.11-186.12-186.11H737.43c-102.63,0-186.12,83.49-186.12,186.11v92.62H57.38V560.45h86.07a28.69,28.69,0,0,0,0-57.38H57.38v-41c0-92.78,75.49-168.27,168.27-168.27H1927.36c92.79,0,168.28,75.49,168.28,168.27Z"/><path class="cls-1" d="M1842.68,1024.26c-95.79,0-173.73,77.94-173.73,173.72s77.94,173.72,173.73,173.72S2016.4,1293.77,2016.4,1198,1938.47,1024.26,1842.68,1024.26Zm0,290.06A116.34,116.34,0,1,1,1959,1198,116.47,116.47,0,0,1,1842.68,1314.32Z"/><path class="cls-1" d="M430.32,503.07H315.58a28.69,28.69,0,1,0,0,57.38H430.32a28.69,28.69,0,1,0,0-57.38Z"/><path class="cls-1" d="M1575.28,503.07H1463.12a28.69,28.69,0,1,0,0,57.38h112.16a28.69,28.69,0,1,0,0-57.38Z"/><path class="cls-1" d="M1291,503.07H1176.23a28.69,28.69,0,0,0,0,57.38H1291a28.69,28.69,0,1,0,0-57.38Z"/><path class="cls-1" d="M1004.1,503.07H889.34a28.69,28.69,0,0,0,0,57.38H1004.1a28.69,28.69,0,0,0,0-57.38Z"/><path class="cls-1" d="M717.21,503.07H602.46a28.69,28.69,0,0,0,0,57.38H717.21a28.69,28.69,0,0,0,0-57.38Z"/></g></g></svg>