<svg xmlns="http://www.w3.org/2000/svg" xmlns:xlink="http://www.w3.org/1999/xlink" viewBox="0 0 220.15 58.59"><defs><style>.cls-1{mask:url(#mask);filter:url(#luminosity-noclip-2);}.cls-2,.cls-7,.cls-8{mix-blend-mode:multiply;}.cls-2{fill:url(#Áåçûìÿííûé_ãðàäèåíò_3486);}.cls-3{isolation:isolate;}.cls-4{fill:#e8e8e8;}.cls-5{mask:url(#mask-2);}.cls-6{fill:#fff;}.cls-8{fill:#eee;opacity:0;}.cls-9{fill:#ebecec;opacity:0.04;}.cls-10{fill:#e8e9ea;opacity:0.08;}.cls-11{fill:#e5e6e7;opacity:0.12;}.cls-12{fill:#e2e3e5;opacity:0.15;}.cls-13{fill:#e0e1e2;opacity:0.19;}.cls-14{fill:#dddedf;opacity:0.23;}.cls-15{fill:#dadcdd;opacity:0.27;}.cls-16{fill:#d8d9da;opacity:0.31;}.cls-17{fill:#d5d6d8;opacity:0.35;}.cls-18{fill:#d2d4d5;opacity:0.38;}.cls-19{fill:#d0d1d3;opacity:0.42;}.cls-20{fill:#cdced0;opacity:0.46;}.cls-21{fill:#caccce;opacity:0.5;}.cls-22{fill:#c7c9cb;opacity:0.54;}.cls-23{fill:#c5c6c8;opacity:0.58;}.cls-24{fill:#c2c4c6;opacity:0.62;}.cls-25{fill:#bfc1c3;opacity:0.65;}.cls-26{fill:#bcbec1;opacity:0.69;}.cls-27{fill:#babcbe;opacity:0.73;}.cls-28{fill:#b7b9bb;opacity:0.77;}.cls-29{fill:#b4b6b9;opacity:0.81;}.cls-30{fill:#b2b4b6;opacity:0.85;}.cls-31{fill:#afb1b3;opacity:0.88;}.cls-32{fill:#acaeb1;opacity:0.92;}.cls-33{fill:#aaacae;opacity:0.96;}.cls-34{fill:#a7a9ac;}.cls-35{fill:url(#linear-gradient);}.cls-36{fill:url(#linear-gradient-2);}.cls-37{fill:url(#linear-gradient-3);}.cls-38{fill:url(#linear-gradient-4);}.cls-39,.cls-40,.cls-49{fill:#3e3d3d;}.cls-40{font-size:5.94px;font-family:Calibri;}.cls-41{letter-spacing:-0.01em;}.cls-42{letter-spacing:-0.01em;}.cls-43{letter-spacing:-0.01em;}.cls-44{letter-spacing:-0.01em;}.cls-45{letter-spacing:-0.01em;}.cls-46{letter-spacing:-0.02em;}.cls-47{letter-spacing:0em;}.cls-48{letter-spacing:-0.02em;}.cls-49,.cls-56,.cls-57,.cls-58,.cls-59{font-size:8px;font-family:Calibri-Bold, Calibri;font-weight:700;}.cls-50,.cls-57{letter-spacing:-0.01em;}.cls-51,.cls-58{letter-spacing:-0.01em;}.cls-52{letter-spacing:0em;}.cls-53{letter-spacing:-0.01em;}.cls-54{letter-spacing:0em;}.cls-55{letter-spacing:-0.01em;}.cls-59{letter-spacing:-0.09em;}.cls-60{filter:url(#luminosity-noclip);}</style><filter id="luminosity-noclip" x="5.75" y="-8218.36" width="50.01" height="32766" filterUnits="userSpaceOnUse" color-interpolation-filters="sRGB"><feFlood flood-color="#fff" result="bg"/><feBlend in="SourceGraphic" in2="bg"/></filter><mask id="mask" x="5.75" y="-8218.36" width="50.01" height="32766" maskUnits="userSpaceOnUse"><g class="cls-60"/></mask><linearGradient id="Áåçûìÿííûé_ãðàäèåíò_3486" x1="248.62" y1="53.2" x2="248.62" y2="19.15" gradientTransform="translate(-217.86 -19.62)" gradientUnits="userSpaceOnUse"><stop offset="0.02" stop-color="#b3b3b3"/><stop offset="1" stop-color="#b6b6b6"/></linearGradient><filter id="luminosity-noclip-2" x="5.75" y="-0.47" width="50.01" height="34.05" filterUnits="userSpaceOnUse" color-interpolation-filters="sRGB"><feFlood flood-color="#fff" result="bg"/><feBlend in="SourceGraphic" in2="bg"/></filter><mask id="mask-2" x="5.75" y="-0.47" width="50.01" height="34.05" maskUnits="userSpaceOnUse"><g class="cls-1"><rect class="cls-2" x="5.75" y="-0.47" width="50.01" height="34.05" transform="translate(61.52 33.11) rotate(180)"/></g></mask><linearGradient id="linear-gradient" x1="250.87" y1="38.12" x2="254.59" y2="45.73" gradientTransform="translate(279.38 52.73) rotate(180)" gradientUnits="userSpaceOnUse"><stop offset="0" stop-color="#f2f2f2"/><stop offset="0.16" stop-color="#f0f0f0"/><stop offset="0.46" stop-color="#c7c7c7"/><stop offset="0.58" stop-color="#b7b9bb"/><stop offset="0.62" stop-color="#b0b2b3"/><stop offset="0.7" stop-color="#a5a5a5"/><stop offset="0.86" stop-color="#bdbfc2"/><stop offset="0.92" stop-color="#c3c5c8"/><stop offset="0.99" stop-color="#d4d6d8"/><stop offset="1" stop-color="#d6d7d9"/></linearGradient><linearGradient id="linear-gradient-2" x1="225.26" y1="41.03" x2="258.44" y2="41.03" gradientTransform="translate(279.38 52.73) rotate(180)" gradientUnits="userSpaceOnUse"><stop offset="0" stop-color="#f1f2f2"/><stop offset="0.75" stop-color="#eff0f0"/><stop offset="1" stop-color="#ebebec"/></linearGradient><linearGradient id="linear-gradient-3" x1="258.37" y1="33.24" x2="270.06" y2="33.24" gradientTransform="translate(279.38 52.73) rotate(180)" gradientUnits="userSpaceOnUse"><stop offset="0" stop-color="#f3f4f4"/><stop offset="1" stop-color="#f1f2f2"/></linearGradient><linearGradient id="linear-gradient-4" x1="269.96" y1="30.04" x2="273.65" y2="30.04" xlink:href="#linear-gradient-3"/></defs><g class="cls-3"><g id="Layer_2" data-name="Layer 2"><rect class="cls-4" x="5.75" y="-0.52" width="214.39" height="53.53"/></g><g id="Layer_1" data-name="Layer 1"><polygon class="cls-4" points="55.79 33.58 55.75 -0.52 5.71 -0.52 5.71 33.5 55.79 33.58"/><g class="cls-5"><rect class="cls-6" x="5.75" y="-0.47" width="50.01" height="34.05" transform="translate(61.52 33.11) rotate(180)"/></g><g class="cls-7"><path class="cls-8" d="M5.74,28.62s0-10.69,0-14.28C6.9,13,7.69,10.13,9,8.89s6.19-5.52,6.19-5.52S26,1.83,26.37,1.59,41.09-.61,42.52-.51s10.9,0,11.6,0c.06.22-20.46,5.54-31.69,10.8-7,3.29-14.54,13.35-15.33,16.09S5.74,28.62,5.74,28.62Z"/><path class="cls-9" d="M5.74,28.67S5.8,18,5.81,14.48C7,13.12,7.71,10.39,9,9.16S15.27,3.7,15.27,3.7s11.12-1.78,11.47-2S41.17-.57,42.6-.46s10.85-.07,11.53,0c.06.22-20.8,5.83-31.67,10.92-6.82,3.2-14.53,13.3-15.31,16S5.74,28.67,5.74,28.67Z"/><path class="cls-10" d="M5.74,28.72s.09-10.67.15-14.09c1.16-1.37,1.85-4,3.15-5.21S15.37,4,15.37,4s11.4-2,11.75-2.27S41.25-.53,42.68-.42,53.47-.54,54.15-.51c.05.22-21.15,6.12-31.66,11-6.62,3.1-14.52,13.23-15.3,16S5.74,28.72,5.74,28.72Z"/><path class="cls-11" d="M5.74,28.78s.12-10.67.22-14c1.17-1.37,1.8-3.86,3.1-5.09s6.4-5.31,6.4-5.31,11.68-2.28,12-2.52S41.33-.49,42.77-.38,53.5-.54,54.16-.51c.05.22-21.49,6.41-31.63,11.17C16.11,13.68,8,23.84,7.23,26.58S5.74,28.78,5.74,28.78Z"/><path class="cls-12" d="M5.74,28.83S5.89,18.17,6,14.92c1.17-1.36,1.76-3.73,3.06-5s6.47-5.24,6.47-5.24S27.52,2.19,27.87,2s13.54-2.4,15-2.3S53.53-.55,54.17-.51c.06.22-21.84,6.7-31.61,11.29C16.34,13.71,8.06,23.91,7.28,26.65S5.74,28.83,5.74,28.83Z"/><path class="cls-13" d="M5.74,28.88s.18-10.65.37-13.81c1.17-1.37,1.7-3.62,3-4.85s6.54-5.17,6.54-5.17,12.24-2.77,12.6-3S41.49-.4,42.93-.3,53.56-.55,54.18-.51c.06.22-22.18,7-31.59,11.42C16.57,13.74,8.1,24,7.32,26.71S5.74,28.88,5.74,28.88Z"/><path class="cls-14" d="M5.74,28.93s.2-10.64.44-13.71c1.17-1.37,1.65-3.5,3-4.74s6.61-5.1,6.61-5.1,12.52-3,12.87-3.24S41.57-.36,43-.26,53.58-.56,54.2-.51c0,.22-22.53,7.29-31.58,11.54C16.8,13.78,8.15,24,7.36,26.78S5.74,28.93,5.74,28.93Z"/><path class="cls-15" d="M5.74,29S6,18.35,6.26,15.36C7.42,14,7.86,12,9.16,10.75s6.68-5,6.68-5S28.64,2.46,29,2.23,41.65-.32,43.09-.21s10.52-.35,11.12-.3c0,.22-22.88,7.58-31.56,11.67C17,13.81,8.19,24.11,7.41,26.85S5.74,29,5.74,29Z"/><path class="cls-16" d="M5.74,29S6,18.42,6.33,15.51C7.5,14.14,7.88,12.25,9.19,11s6.75-4.95,6.75-4.95S29,2.55,29.37,2.32,41.73-.28,43.17-.17s10.47-.4,11-.34C54.28-.29,31,7.36,22.68,11.28,17.27,13.84,8.24,24.17,7.45,26.91S5.74,29,5.74,29Z"/><path class="cls-17" d="M5.74,29.09S6,18.48,6.41,15.66c1.16-1.37,1.5-3.15,2.8-4.38S16,6.39,16,6.39s13.36-3.75,13.71-4S41.81-.23,43.25-.13s10.42-.44,11-.38c.06.22-23.56,8.16-31.52,11.92C17.5,13.88,8.28,24.24,7.5,27S5.74,29.09,5.74,29.09Z"/><path class="cls-18" d="M5.74,29.14s.32-10.6.74-13.34c1.17-1.36,1.45-3,2.76-4.26s6.89-4.81,6.89-4.81,13.64-4,14-4.23S41.89-.19,43.33-.09,53.69-.58,54.25-.51c0,.22-23.92,8.45-31.51,12-5,2.38-14.42,12.78-15.2,15.52S5.74,29.14,5.74,29.14Z"/><path class="cls-19" d="M5.74,29.2S6.08,18.6,6.56,16C7.72,14.58,8,13,9.26,11.81a79.1,79.1,0,0,1,7-4.75S30.15,2.83,30.5,2.59,42-.15,43.41,0,53.72-.58,54.26-.51C54.31-.29,30,8.24,22.77,11.66,18,13.94,8.37,24.37,7.58,27.11S5.74,29.2,5.74,29.2Z"/><path class="cls-20" d="M5.74,29.25s.37-10.59.89-13.15c1.17-1.37,1.35-2.79,2.65-4a77.18,77.18,0,0,1,7-4.67s14.2-4.48,14.55-4.72S42.06-.11,43.49,0,53.75-.59,54.27-.51c.06.22-24.6,9-31.47,12.29C18.2,14,8.41,24.44,7.63,27.18S5.74,29.25,5.74,29.25Z"/><path class="cls-21" d="M5.74,29.3s.4-10.58,1-13.06c1.16-1.36,1.3-2.67,2.6-3.9s7.11-4.61,7.11-4.61S30.9,3,31.25,2.77,42.14-.07,43.57,0,53.78-.59,54.28-.51c.06.22-24.94,9.33-31.45,12.42C18.43,14,8.45,24.51,7.67,27.25S5.74,29.3,5.74,29.3Z"/><path class="cls-22" d="M5.74,29.35s.43-10.57,1-13C8,15,8,13.84,9.33,12.6s7.18-4.53,7.18-4.53,14.76-5,15.12-5.21S42.22,0,43.66.08,53.8-.6,54.3-.51C54.35-.29,29,9.11,22.86,12,18.66,14,8.5,24.58,7.71,27.31S5.74,29.35,5.74,29.35Z"/><path class="cls-23" d="M5.74,29.41S6.2,18.84,6.85,16.54C8,15.17,8.06,14.1,9.36,12.87s7.25-4.46,7.25-4.46S31.65,3.19,32,3,42.3,0,43.74.12,53.83-.6,54.31-.51c0,.22-25.64,9.91-31.42,12.67-4,1.92-14.35,12.48-15.13,15.22S5.74,29.41,5.74,29.41Z"/><path class="cls-24" d="M5.74,29.46s.49-10.55,1.19-12.78c1.17-1.36,1.15-2.31,2.45-3.55S16.7,8.74,16.7,8.74,32,3.28,32.38,3s10-3,11.44-2.88,10-.77,10.5-.67c.06.22-26,10.21-31.4,12.79C19.13,14.11,8.59,24.71,7.8,27.45S5.74,29.46,5.74,29.46Z"/><path class="cls-25" d="M5.74,29.51S6.25,19,7,16.83c1.17-1.37,1.1-2.2,2.41-3.43S16.8,9.08,16.8,9.08s15.6-5.71,16-5.95S42.46.1,43.9.2s10-.81,10.43-.71C54.39-.29,28,10,23,12.41c-3.6,1.73-14.33,12.37-15.11,15.1S5.74,29.51,5.74,29.51Z"/><path class="cls-26" d="M5.74,29.56S6.28,19,7.08,17c1.16-1.37,1.05-2.08,2.35-3.32s7.46-4.25,7.46-4.25S32.78,3.46,33.13,3.22,42.54.14,44,.25s9.93-.87,10.37-.76c0,.22-26.68,10.79-31.36,13C19.6,14.18,8.67,24.84,7.89,27.58S5.74,29.56,5.74,29.56Z"/><path class="cls-27" d="M5.74,29.62s.57-10.53,1.41-12.5c1.17-1.36,1-2,2.31-3.19S17,9.75,17,9.75,33.15,3.55,33.5,3.31,42.62.18,44.06.29s9.88-.91,10.3-.8c0,.22-27,11.07-31.34,13.16-3.2,1.55-14.3,12.26-15.09,15S5.74,29.62,5.74,29.62Z"/><path class="cls-28" d="M5.74,29.67s.6-10.52,1.49-12.4c1.16-1.37.95-1.84,2.25-3.08s7.61-4.1,7.61-4.1S33.53,3.64,33.88,3.4,42.7.22,44.14.33,54-.63,54.37-.51C54.43-.29,27,10.85,23.05,12.78,20.06,14.24,8.76,25,8,27.71S5.74,29.67,5.74,29.67Z"/><path class="cls-29" d="M5.74,29.72s.63-10.51,1.56-12.3c1.17-1.37.9-1.73,2.2-3s7.68-4,7.68-4S33.9,3.73,34.26,3.49,42.78.27,44.22.37,54-.63,54.38-.51c.06.22-27.71,11.66-31.3,13.41C20.29,14.27,8.81,25,8,27.78S5.74,29.72,5.74,29.72Z"/><path class="cls-30" d="M5.74,29.78s.65-10.51,1.64-12.22c1.16-1.36.85-1.6,2.15-2.84s7.75-4,7.75-4,17-6.94,17.35-7.17S42.86.31,44.3.41,54-.64,54.4-.51c.05.22-28.06,12-31.29,13.54-2.59,1.27-14.26,12.08-15,14.82S5.74,29.78,5.74,29.78Z"/><path class="cls-31" d="M5.74,29.83s.68-10.5,1.71-12.12c1.17-1.37.8-1.49,2.1-2.72s7.82-3.9,7.82-3.9S34.65,3.91,35,3.68,43,.35,44.38.46s9.67-1.1,10-1C54.46-.29,26,11.73,23.14,13.15c-2.38,1.19-14.25,12-15,14.76S5.74,29.83,5.74,29.83Z"/><path class="cls-32" d="M5.74,29.88s.71-10.48,1.79-12c1.16-1.37.75-1.37,2.05-2.61s7.89-3.82,7.89-3.82S35,4,35.38,3.77,43,.39,44.46.5s9.62-1.15,10-1C54.48-.29,25.67,12,23.17,13.28,21,14.37,8.94,25.24,8.15,28S5.74,29.88,5.74,29.88Z"/><path class="cls-33" d="M5.74,29.93S6.48,19.46,7.6,18s.7-1.25,2-2.48,8-3.76,8-3.76,17.85-7.67,18.2-7.9S43.11.43,44.54.54s9.56-1.19,9.89-1c.06.22-29.09,12.83-31.23,13.91-2,1-14.22,11.91-15,14.65S5.74,29.93,5.74,29.93Z"/><path class="cls-34" d="M5.74,30s.77-10.47,1.93-11.84a17.26,17.26,0,0,1,2-2.37c1.3-1.23,8-3.68,8-3.68S35.78,4.18,36.13,4,43.19.48,44.63.58s9.5-1.24,9.82-1.09c0,.22-29.44,13.12-31.22,14S9,25.38,8.24,28.12,5.74,30,5.74,30Z"/></g><path class="cls-4" d="M40.15,2s1.14-1,5-1.7a71.59,71.59,0,0,1,10.6-.86v34.1h-50S5.16,17.36,9.68,15.31Z"/><path class="cls-8" d="M18.59,22.69s-9.72-4.05-9.23-6.05c0,0-.82-.49-.13-1,.39-.29.86.82,2,1.42S17.13,21.64,18.59,22.69Z"/><path class="cls-9" d="M18.68,22.73S9.14,18.56,9.5,16.59c0,0-.81-.47-.14-1,.38-.29.9.77,2,1.38S17.27,21.66,18.68,22.73Z"/><path class="cls-10" d="M18.78,22.76S9.4,18.49,9.65,16.54c0,0-.82-.46-.16-1,.37-.3.93.71,2,1.32S17.41,21.69,18.78,22.76Z"/><path class="cls-11" d="M18.87,22.8s-9.2-4.38-9.08-6.31c0,0-.81-.44-.18-.95.37-.31,1,.65,2.08,1.27S17.55,21.71,18.87,22.8Z"/><path class="cls-12" d="M19,22.84s-9-4.5-9-6.4c0,0-.81-.43-.2-.94.36-.31,1,.6,2.12,1.23S17.69,21.74,19,22.84Z"/><path class="cls-13" d="M19.05,22.88s-8.85-4.61-9-6.49c0,0-.81-.41-.22-.92.36-.32,1.06.54,2.16,1.18S17.83,21.76,19.05,22.88Z"/><path class="cls-14" d="M19.14,22.92s-8.67-4.72-8.91-6.58c0,0-.81-.4-.24-.91.35-.32,1.09.49,2.2,1.13S18,21.79,19.14,22.92Z"/><path class="cls-15" d="M19.23,23s-8.49-4.83-8.86-6.66c0,0-.81-.38-.26-.89.35-.33,1.14.43,2.24,1.08S18.11,21.81,19.23,23Z"/><path class="cls-16" d="M19.32,23S11,18.05,10.51,16.24c0,0-.8-.37-.27-.88.34-.33,1.17.38,2.28,1S18.25,21.83,19.32,23Z"/><path class="cls-17" d="M19.41,23S11.27,18,10.66,16.19c0,0-.81-.35-.3-.86.34-.34,1.22.32,2.32,1S18.39,21.86,19.41,23Z"/><path class="cls-18" d="M19.5,23.07s-8-5.17-8.7-6.93c0,0-.8-.34-.31-.85.33-.34,1.25.27,2.35.94S18.53,21.88,19.5,23.07Z"/><path class="cls-19" d="M19.59,23.11s-7.78-5.28-8.64-7c0,0-.81-.33-.34-.83.33-.35,1.3.21,2.4.89S18.67,21.91,19.59,23.11Z"/><path class="cls-20" d="M19.68,23.14s-7.61-5.38-8.59-7.1c0,0-.8-.31-.35-.82.32-.35,1.33.16,2.43.84S18.81,21.93,19.68,23.14Z"/><path class="cls-21" d="M19.77,23.18s-7.43-5.5-8.53-7.19c0,0-.81-.3-.37-.8s1.37.1,2.47.79S19,22,19.77,23.18Z"/><path class="cls-22" d="M19.87,23.22s-7.26-5.61-8.49-7.28c0,0-.8-.29-.39-.79s1.41,0,2.51.75S19.09,22,19.87,23.22Z"/><path class="cls-23" d="M20,23.26s-7.08-5.72-8.43-7.37c0,0-.81-.28-.41-.77s1.45,0,2.55.7S19.23,22,20,23.26Z"/><path class="cls-24" d="M20.05,23.3s-6.91-5.84-8.38-7.46c0,0-.81-.26-.43-.76s1.5-.06,2.59.65S19.37,22,20.05,23.3Z"/><path class="cls-25" d="M20.14,23.33s-6.73-5.94-8.32-7.54c0,0-.81-.25-.45-.74s1.53-.12,2.62.6S19.51,22.06,20.14,23.33Z"/><path class="cls-26" d="M20.23,23.37S13.68,17.31,12,15.74c0,0-.81-.24-.47-.73s1.58-.17,2.67.56S19.65,22.08,20.23,23.37Z"/><path class="cls-27" d="M20.32,23.41s-6.38-6.17-8.21-7.72c0,0-.82-.23-.49-.71s1.61-.23,2.7.5S19.79,22.11,20.32,23.41Z"/><path class="cls-28" d="M20.41,23.45s-6.2-6.28-8.16-7.81c0,0-.81-.22-.51-.7s1.66-.28,2.75.46S19.93,22.13,20.41,23.45Z"/><path class="cls-29" d="M20.5,23.49s-6-6.4-8.1-7.9c0,0-.82-.21-.53-.68s1.69-.34,2.78.41S20.07,22.16,20.5,23.49Z"/><path class="cls-30" d="M20.59,23.52s-5.84-6.5-8-8c0,0-.82-.19-.55-.67s1.74-.39,2.83.37S20.21,22.18,20.59,23.52Z"/><path class="cls-31" d="M20.68,23.56S15,17,12.69,15.49c0,0-.83-.18-.57-.65s1.77-.45,2.86.31S20.35,22.21,20.68,23.56Z"/><path class="cls-32" d="M20.77,23.6s-5.49-6.73-7.94-8.16c0,0-.83-.17-.58-.64s1.81-.5,2.9.27S20.48,22.23,20.77,23.6Z"/><path class="cls-33" d="M20.86,23.64S15.55,16.8,13,15.39c0,0-.84-.16-.61-.62s1.85-.57,2.94.22S20.62,22.26,20.86,23.64Z"/><path class="cls-34" d="M21,23.67s-5.14-6.94-7.83-8.33c0,0-.83-.15-.62-.61s1.89-.62,3,.17S20.76,22.28,21,23.67Z"/><path class="cls-35" d="M9.36,15.4c2.2-1.18,5.64,1.71,11.58,8.31,0,0,11.59-18.22,20.61-22.4C41.55,1.31,25.53,8.23,9.36,15.4Z"/><path class="cls-36" d="M20.94,23.71S33.54,4.22,41.36,1.36A12.57,12.57,0,0,1,45.73.16a78.87,78.87,0,0,1,8.39-.68c-2.7.12-7.75.63-8.36.75a17.6,17.6,0,0,0-4.32,1.21A18.9,18.9,0,0,0,37.35,4,49.55,49.55,0,0,0,32,9.26,133.33,133.33,0,0,0,21,23.91Z"/><path class="cls-37" d="M21,23.67s-7.23-8.92-10.56-8.58a2.31,2.31,0,0,0-1.06.32l.1.13s.29-.4,1.54-.26c1.5.19,4.49,2.65,5.54,3.84C18,20.46,21,23.91,21,23.91Z"/><path class="cls-38" d="M5.74,30s0-7.13,1.77-11.61a6.47,6.47,0,0,1,1.92-2.82s-.06-.13-.1-.13A6.88,6.88,0,0,0,7.4,18.29a21.21,21.21,0,0,0-1,3.94A74.84,74.84,0,0,0,5.74,30Z"/></g><g id="Layer_3" data-name="Layer 3"><g id="Element"><path class="cls-39" d="M120.4,37a1.29,1.29,0,0,0,1-1.47L121,33a1.31,1.31,0,0,0-.54-.85,1.26,1.26,0,0,0-.73-.22,1.06,1.06,0,0,0-.25,0l-.31.06c-.07-.12-.15-.24-.23-.36l.25-.38a1.27,1.27,0,0,0-.31-1.75L116.81,28a1.26,1.26,0,0,0-.75-.24l-.23,0a1.28,1.28,0,0,0-.84.55l-.21.32-.33-.07-.06-.39a1.31,1.31,0,0,0-.54-.85,1.26,1.26,0,0,0-.73-.22,1.1,1.1,0,0,0-.25,0l-2.48.5a1.26,1.26,0,0,0-1,1.46l.07.45a4,4,0,0,0-.34.23l-.26-.19a1.26,1.26,0,0,0-.75-.24.9.9,0,0,0-.23,0,1.28,1.28,0,0,0-.84.55l-1.45,2.19a1.29,1.29,0,0,0,.31,1.75l.32.23c0,.16-.08.33-.11.5l-.37.07a1.27,1.27,0,0,0-1,1.47l.42,2.6a1.31,1.31,0,0,0,.54.85,1.28,1.28,0,0,0,.73.22,1.06,1.06,0,0,0,.25,0l.31-.06c.07.12.15.24.23.36l-.25.38a1.29,1.29,0,0,0,.31,1.75l2.06,1.49a1.29,1.29,0,0,0,.75.24l.23,0a1.25,1.25,0,0,0,.84-.55l.22-.32.32.07.06.39a1.31,1.31,0,0,0,.54.85,1.26,1.26,0,0,0,.73.22,1.06,1.06,0,0,0,.25,0l2.48-.5a1.28,1.28,0,0,0,1-1.46l-.08-.45a4,4,0,0,0,.34-.23l.26.19a1.29,1.29,0,0,0,.75.24.86.86,0,0,0,.23,0,1.25,1.25,0,0,0,.84-.55l1.46-2.19a1.28,1.28,0,0,0-.32-1.75l-.32-.23a4,4,0,0,0,.11-.5Zm-.91,1.84L118,41.07,117,40.3a6.19,6.19,0,0,1-1.7,1.16l.22,1.35L113,43.3,112.79,42a5.36,5.36,0,0,1-2-.43l-.76,1.14-2-1.49.75-1.14a5.89,5.89,0,0,1-1.07-1.76l-1.29.25-.43-2.6,1.29-.26a6.5,6.5,0,0,1,.44-2.07l-1.06-.77,1.45-2.19,1.06.77a6.19,6.19,0,0,1,1.7-1.16l-.22-1.35,2.48-.49.23,1.35a5.45,5.45,0,0,1,2,.43l.75-1.14,2.06,1.49-.76,1.14a6.05,6.05,0,0,1,1.08,1.77l1.28-.26.43,2.6-1.29.26a6.24,6.24,0,0,1-.44,2.07Z"/><path class="cls-39" d="M113.06,31.86a4,4,0,0,0-3.76,2.67,4,4,0,0,0,3.77,5.31,3.94,3.94,0,0,0,1.72-.39,4,4,0,0,0-1.73-7.59Zm1.18,6.43A2.78,2.78,0,0,1,110.62,37a2.71,2.71,0,0,1,1.27-3.61,2.67,2.67,0,0,1,1.17-.27,2.71,2.71,0,0,1,1.18,5.15Z"/><path class="cls-39" d="M88.2,32.12a1.28,1.28,0,0,0-.73-.22,1.06,1.06,0,0,0-.25,0l-.31.06c-.07-.12-.15-.24-.23-.36l.25-.38a1.29,1.29,0,0,0-.31-1.75L84.56,28a1.29,1.29,0,0,0-.75-.24l-.23,0a1.25,1.25,0,0,0-.84.55l-.22.32-.32-.07-.06-.39a1.31,1.31,0,0,0-.54-.85,1.26,1.26,0,0,0-.73-.22,1.06,1.06,0,0,0-.25,0l-2.48.5a1.28,1.28,0,0,0-1,1.46l.08.45a4,4,0,0,0-.34.23l-.26-.19a1.29,1.29,0,0,0-.75-.24.86.86,0,0,0-.23,0,1.25,1.25,0,0,0-.84.55l-1.46,2.19a1.28,1.28,0,0,0,.32,1.75l.32.23a4,4,0,0,0-.11.5l-.37.07a1.29,1.29,0,0,0-1,1.47l.43,2.6a1.31,1.31,0,0,0,.54.85,1.26,1.26,0,0,0,.73.22,1.06,1.06,0,0,0,.25,0l.31-.06c.07.12.15.24.23.36l-.25.38A1.27,1.27,0,0,0,75,42.21l2.06,1.49a1.26,1.26,0,0,0,.75.24l.23,0a1.28,1.28,0,0,0,.84-.55l.21-.32.33.07.06.39a1.31,1.31,0,0,0,.54.85,1.26,1.26,0,0,0,.73.22,1.1,1.1,0,0,0,.25,0l2.48-.5a1.28,1.28,0,0,0,1-1.46l-.08-.45a4,4,0,0,0,.34-.23l.26.19a1.26,1.26,0,0,0,.75.24.86.86,0,0,0,.23,0,1.25,1.25,0,0,0,.84-.55l1.45-2.19A1.28,1.28,0,0,0,88,37.84l-.32-.23c0-.16.08-.33.11-.5l.37-.07a1.27,1.27,0,0,0,1-1.47L88.74,33A1.31,1.31,0,0,0,88.2,32.12ZM86.61,36a6.5,6.5,0,0,1-.44,2.07l1.07.77-1.46,2.19-1.06-.77A6.19,6.19,0,0,1,83,41.46l.22,1.35-2.48.49L80.54,42a5.45,5.45,0,0,1-2-.43l-.75,1.14-2.06-1.49L76.52,40a6.14,6.14,0,0,1-1.08-1.76l-1.28.25-.43-2.6L75,35.66a6.24,6.24,0,0,1,.44-2.07l-1.07-.77,1.46-2.19,1.06.77a6.19,6.19,0,0,1,1.7-1.16l-.22-1.35,2.48-.49.22,1.35a5.36,5.36,0,0,1,2,.43L83.81,29l2,1.49-.75,1.14a5.82,5.82,0,0,1,1.07,1.77l1.29-.26.43,2.6Z"/><path class="cls-39" d="M80.81,31.86a4,4,0,0,0-3.59,5.72,4,4,0,0,0,3.6,2.26,3.94,3.94,0,0,0,1.72-.39,4,4,0,0,0-1.73-7.59ZM82,38.29A2.78,2.78,0,0,1,78.37,37a2.71,2.71,0,0,1,1.27-3.61,2.64,2.64,0,0,1,1.17-.27A2.71,2.71,0,0,1,82,38.29Z"/><path class="cls-39" d="M102.1,38.62a51.15,51.15,0,0,1-.76-5.21l0-2.08c0-2.28-.07-5.85-.07-7.5l4.17.74h0l.09,0,5.18.46h.07a1.74,1.74,0,0,0,1.73-1.65,1.77,1.77,0,0,0-.46-1.24,1.67,1.67,0,0,0-1.14-.55l-3.75-.46-6.58-2.78a.58.58,0,0,0-.26-.05l0,0a5.92,5.92,0,0,0-1.91.37,5.41,5.41,0,0,1-1.26.31,6.07,6.07,0,0,1-1.41-.31,6.3,6.3,0,0,0-2-.37l-.1,0a.58.58,0,0,0-.36.08l-4.45,2.67L83.33,18.7a.71.71,0,0,0-.29-.05,1.69,1.69,0,0,0-1.19.55,1.77,1.77,0,0,0-.46,1.24c0,1,.94,1.37,1.53,1.6,1.47.59,5.53,2.91,5.58,2.93a.61.61,0,0,0,.31.09.45.45,0,0,0,.11,0A.25.25,0,0,0,89,25l3.63-1.1c0,1.57,0,4.55,0,6.86,0,1.29,0,2.33,0,2.7,0,1.33-.69,5.12-.69,5.14l-1.62,8a.49.49,0,0,0,0,.12,2,2,0,0,0,4,.09L97,35.38,98,39.16l1.82,7.63a2,2,0,0,0,4-.09.49.49,0,0,0,0-.12ZM88.89,23.72c-.93-.52-4.14-2.33-5.49-2.87-.56-.22-.72-.32-.72-.46a.42.42,0,0,1,.11-.32A.39.39,0,0,1,83,20l5.54,2.41h0a.61.61,0,0,0,.13,0,.42.42,0,0,0,.15,0,.67.67,0,0,0,.19-.05h0l.12,0,4.61-2.77h0a5.84,5.84,0,0,1,1.51.32,7,7,0,0,0,1.76.36h0a6.3,6.3,0,0,0,1.62-.36,5.48,5.48,0,0,1,1.42-.32h0l6.63,2.81a.74.74,0,0,0,.25.05h0l3.74.46a.5.5,0,0,1,.31.14.45.45,0,0,1-.31.74l-5.1-.45-.05,0-4.86-.85a.65.65,0,0,0-.55.19.63.63,0,0,0-.26.48c0,.84,0,3.94.05,6.61H94c0-2.63,0-5.89,0-6.64a.65.65,0,0,0-.61-.67.8.8,0,0,0-.15,0,.65.65,0,0,0-.19,0ZM101.75,47.2c-.37,0-.69-.23-.69-.5a.59.59,0,0,0,0-.14l-1.83-7.7-1.55-6.24a.6.6,0,0,0-.19-.3.62.62,0,0,0-1.1.26l-3.3,14a.61.61,0,0,0,0,.14c0,.27-.32.5-.7.5a.67.67,0,0,1-.7-.45l1.61-7.9A50.57,50.57,0,0,0,94,33.48c0-.35,0-1.29,0-2.47H100v.34l0,2.06a48,48,0,0,0,.8,5.46l1.6,7.88A.67.67,0,0,1,101.75,47.2Z"/><path class="cls-39" d="M96.87,18.31a3.55,3.55,0,0,0,3.55-3.55V11.58a.64.64,0,1,0-1.28,0v3.18a2.3,2.3,0,0,1-4.59,0V11.58a.65.65,0,0,0-1.29,0v3.18A3.57,3.57,0,0,0,96.87,18.31Z"/><path class="cls-39" d="M95.83,8.73h1.41l-1.66,3.5a.64.64,0,0,0,.3.85.58.58,0,0,0,.28.07.65.65,0,0,0,.58-.37l2.1-4.42a.64.64,0,0,0-.58-.91H97.12l1.65-2.18a.64.64,0,0,0-.13-.9.65.65,0,0,0-.9.13L95.32,7.7a.63.63,0,0,0-.07.67A.64.64,0,0,0,95.83,8.73Z"/><path class="cls-39" d="M77.3,15.47l6.17,1.65.17,0a.65.65,0,0,0,.17-1.27l-6.17-1.65a.65.65,0,0,0-.79.46A.64.64,0,0,0,77.3,15.47Z"/><path class="cls-39" d="M87.87,13.9a.64.64,0,0,0,.57.35.59.59,0,0,0,.29-.07.64.64,0,0,0,.28-.86L85.66,6.78a.64.64,0,0,0-.86-.28.65.65,0,0,0-.28.87Z"/><path class="cls-39" d="M110.24,17.15l.17,0,6.17-1.65a.64.64,0,0,0,.45-.78.65.65,0,0,0-.79-.46l-6.17,1.65a.65.65,0,0,0,.17,1.27Z"/><path class="cls-39" d="M105.15,14.18a.59.59,0,0,0,.29.07.64.64,0,0,0,.57-.35l3.35-6.53a.65.65,0,0,0-.28-.87.64.64,0,0,0-.86.28l-3.35,6.54A.64.64,0,0,0,105.15,14.18Z"/></g></g><g id="Layer_4" data-name="Layer 4"><text class="cls-40" transform="translate(17.68 33.14) rotate(-15.85)">Sou<tspan class="cls-41" x="8.98" y="0">r</tspan><tspan x="10.97" y="0">cing m</tspan><tspan class="cls-42" x="26.85" y="0">a</tspan><tspan class="cls-43" x="29.64" y="0">t</tspan><tspan x="31.57" y="0">erials </tspan><tspan class="cls-44" x="45.83" y="0">c</tspan><tspan x="48.3" y="0">an</tspan></text><text class="cls-40" transform="translate(121.1 20.4) rotate(-7.84)">O<tspan class="cls-45" x="3.93" y="0">v</tspan><tspan x="6.56" y="0">e</tspan><tspan class="cls-46" x="9.51" y="0">r</tspan><tspan class="cls-47" x="11.48" y="0">seeing quality of p</tspan><tspan class="cls-48" x="55.59" y="0">r</tspan><tspan x="57.57" y="0">oduction alone</tspan></text><text class="cls-49" transform="translate(132.69 27.49) rotate(-7.84)"><tspan class="cls-50">C</tspan><tspan x="4.18" y="0">O</tspan><tspan class="cls-51" x="9.59" y="0">S</tspan><tspan class="cls-52" x="13.29" y="0">T</tspan><tspan x="17.21" y="0">S EXTRA MONEY</tspan></text><text class="cls-49" transform="translate(31.8 37.19) rotate(-15.85)">BE HARD</text><text class="cls-40" transform="translate(123.99 44.58)"><tspan class="cls-53">E</tspan><tspan x="2.81" y="0">quipme</tspan><tspan class="cls-42" x="21.24" y="0">n</tspan><tspan class="cls-54" x="24.31" y="0">t mai</tspan><tspan class="cls-42" x="36.6" y="0">n</tspan><tspan class="cls-55" x="39.66" y="0">t</tspan><tspan x="41.59" y="0">enance </tspan><tspan class="cls-56" x="60.44" y="0">IS </tspan><tspan class="cls-57" x="68.17" y="0">C</tspan><tspan class="cls-56" x="72.34" y="0">O</tspan><tspan class="cls-58" x="77.75" y="0">S</tspan><tspan class="cls-56" x="81.46" y="0">T</tspan><tspan class="cls-59" x="85.42" y="0">L</tspan><tspan class="cls-56" x="88.1" y="0">Y</tspan><tspan class="cls-47" x="92.25" y="0"> </tspan></text></g><g id="Layer_5" data-name="Layer 5"><path class="cls-39" d="M3.3,57.26a2.09,2.09,0,0,0,1-1A2.19,2.19,0,0,0,4.57,55l0-.13,3.11-1.34,2.16.94a7.72,7.72,0,0,0,2.24.58,5.3,5.3,0,0,0,2-.2L9.35,52.83l4.74-2a5.3,5.3,0,0,0-2-.2,7.44,7.44,0,0,0-2.24.59l-2.16.93L4.55,50.76l0-.13a2.19,2.19,0,0,0-.23-1.26,2.12,2.12,0,0,0-3.83.14,2.27,2.27,0,0,0-.17,1A2.13,2.13,0,0,0,1.62,52.3a2.18,2.18,0,0,0,1,.17A2.12,2.12,0,0,0,3,52.39a2,2,0,0,0,1.06-.7l.09-.1,2.67,1.16,0,.08,0,.08L4.19,54.07,4.1,54A2,2,0,0,0,3,53.27a2.12,2.12,0,0,0-.41-.08,2.18,2.18,0,0,0-1,.17A2.13,2.13,0,0,0,.34,55.15a2.27,2.27,0,0,0,.17,1A2.13,2.13,0,0,0,3.3,57.26Zm-.36-5.62a1.41,1.41,0,0,1-.93,0,1.39,1.39,0,0,1-.81-.75,1.38,1.38,0,0,1,0-1.09h0A1.37,1.37,0,0,1,2.36,49a1.51,1.51,0,0,1,.65.11,1.41,1.41,0,0,1,.73.75,1.38,1.38,0,0,1-.8,1.8Zm4.49,1.21v0h0a.24.24,0,0,1,.48,0h0a.24.24,0,0,1-.48,0ZM2.36,56.68a1.37,1.37,0,0,1-1.16-.83h0a1.38,1.38,0,0,1,0-1.09A1.39,1.39,0,0,1,2,54a1.41,1.41,0,0,1,.93,0,1.4,1.4,0,0,1,.78.75,1.37,1.37,0,0,1-1.36,1.91Z"/><path class="cls-39" d="M115.15,53.13h-2.5v-.6h2.5Zm-5,0h-2.5v-.6h2.5Zm-5,0h-2.5v-.6h2.5Zm-5,0h-2.5v-.6h2.5Zm-5,0h-2.5v-.6h2.5Zm-5,0H87.62v-.6h2.51Zm-5,0h-2.5v-.6h2.5Zm-5,0H77.61v-.6h2.51Zm-5,0h-2.5v-.6h2.5Zm-5,0H67.6v-.6h2.51Zm-5,0H62.6v-.6h2.5Zm-5,0H57.59v-.6H60.1Zm-5,0h-2.5v-.6h2.5Zm-5,0H47.58v-.6h2.51Zm-5,0h-2.5v-.6h2.5Zm-5,0H37.57v-.6h2.51Zm-5,0h-2.5v-.6h2.5Zm-5,0H27.56v-.6h2.51Zm-5,0h-2.5v-.6h2.5Zm-5,0H17.55v-.6h2.51Zm-5,0h-2.5v-.6h2.5Z"/><path class="cls-39" d="M117.52,52.53H120v.6h-2.5Zm5,0H125v.6h-2.5Zm5,0H130v.6h-2.5Zm5,0H135v.6h-2.5Zm5,0H140v.6h-2.5Zm5,0h2.5v.6h-2.5Zm5,0h2.5v.6h-2.5Zm5,0h2.5v.6h-2.5Zm5,0h2.5v.6h-2.5Zm5,0h2.5v.6h-2.5Zm5,0h2.5v.6h-2.5Zm5,0h2.5v.6h-2.5Zm5,0h2.5v.6h-2.5Zm5,0h2.5v.6h-2.5Zm5,0h2.5v.6h-2.5Zm5,0h2.5v.6h-2.5Zm5,0h2.5v.6h-2.5Zm5,0h2.5v.6h-2.5Zm5,0h2.5v.6h-2.5Zm5,0h2.5v.6h-2.5Zm5,0h2.5v.6h-2.5Z"/></g></g></svg>